<svg width="45" height="57" viewBox="0 0 45 57" fill="none" xmlns="http://www.w3.org/2000/svg">
<path fill-rule="evenodd" clip-rule="evenodd" d="M44.9998 0L44.9998 39.0411L44.9998 42.9866C45.0064 43.6303 44.881 44.2689 44.6306 44.8655C44.3802 45.462 44.01 46.0047 43.5412 46.4621C43.0725 46.9196 42.5146 47.2827 41.8997 47.5305C41.2849 47.7784 40.6252 47.9059 39.959 47.9059H35.0335C29.6326 47.9059 26.1834 49.4644 21.8411 53.8619L18.8022 57V47.9059H5.041C4.37478 47.9059 3.71516 47.7784 3.10028 47.5305C2.4854 47.2827 1.92745 46.9196 1.45871 46.4621C0.989971 46.0047 0.619729 45.462 0.369391 44.8655C0.119054 44.2689 -0.00641017 43.6303 0.000252064 42.9866V0H44.9998ZM41.8421 7.80822L41.8421 3.23547H3.31275V42.9866C3.3118 43.2064 3.3558 43.4244 3.44222 43.6278C3.52866 43.8311 3.65581 44.0161 3.81639 44.1719C3.97696 44.3277 4.16781 44.4513 4.37796 44.5357C4.58811 44.62 4.81344 44.6635 5.041 44.6635H21.6035V50.3482C26.1834 45.4358 30.288 44.6635 35.0479 44.6635H39.9877C40.4449 44.6598 40.8819 44.4812 41.2031 44.167C41.5244 43.8527 41.7036 43.4283 41.7016 42.9866L41.8421 7.80822Z" fill="#CC0029"/>
</svg>
