<svg width="512" height="512" viewBox="0 0 512 512" fill="none" xmlns="http://www.w3.org/2000/svg">
<path d="M461.913 83.4785H50.087C22.467 83.4785 0 105.975 0 133.566V378.436C0 406.058 22.498 428.523 50.087 428.523H461.913C489.491 428.523 512 406.07 512 378.436V133.566C512 105.985 489.543 83.4785 461.913 83.4785ZM460.563 116.871C452.069 125.365 273.692 303.742 267.806 309.629C261.279 316.155 250.721 316.155 244.194 309.629C238.303 303.736 59.927 125.361 51.437 116.871H460.563ZM33.391 377.086V146.047L148.91 261.566L33.391 377.086ZM62.567 395.131L172.521 285.177L220.582 333.238C240.108 352.766 271.886 352.767 291.416 333.238L339.477 285.177L449.432 395.131H62.567ZM478.609 377.086L363.089 261.566L478.608 146.047V377.086H478.609Z" fill="#637381"/>
</svg>
