<svg width="306" height="335" viewBox="0 0 306 335" fill="none" xmlns="http://www.w3.org/2000/svg">
<g clip-path="url(#clip0_364_1186)">
<rect width="306" height="335" fill="#F8FBFE"/>
<path fill-rule="evenodd" clip-rule="evenodd" d="M217.998 -74L217.998 189.699L217.998 216.348C218.043 220.696 217.193 225.009 215.496 229.039C213.799 233.068 211.29 236.734 208.113 239.823C204.936 242.913 201.155 245.366 196.987 247.039C192.82 248.714 188.349 249.575 183.833 249.575H150.449C113.843 249.575 90.4651 260.102 61.0343 289.804L40.4375 311V249.575H-52.8332C-57.3487 249.575 -61.8195 248.714 -65.987 247.039C-70.1545 245.366 -73.9362 242.913 -77.1132 239.823C-80.2902 236.734 -82.7996 233.068 -84.4963 229.039C-86.1931 225.009 -87.0434 220.696 -86.9983 216.348V-74H217.998ZM196.597 -21.2603L196.597 -52.1464H-64.5469V216.348C-64.5534 217.833 -64.2551 219.305 -63.6694 220.679C-63.0835 222.052 -62.2217 223.302 -61.1334 224.354C-60.045 225.406 -58.7515 226.241 -57.3271 226.811C-55.9028 227.381 -54.3756 227.675 -52.8332 227.675H59.4237V266.071C90.4651 232.891 118.285 227.675 150.547 227.675H184.028C187.126 227.65 190.088 226.443 192.266 224.321C194.443 222.198 195.658 219.332 195.644 216.348L196.597 -21.2603Z" fill="#F1F5F9"/>
<g clip-path="url(#clip1_364_1186)">
<path fill-rule="evenodd" clip-rule="evenodd" d="M114.191 152.807L114.191 184.372L114.191 187.562C114.197 188.082 114.095 188.599 113.893 189.081C113.69 189.563 113.391 190.002 113.012 190.372C112.633 190.742 112.182 191.035 111.685 191.236C111.188 191.436 110.655 191.539 110.116 191.539H106.134C101.767 191.539 98.9781 192.799 95.4674 196.355L93.0104 198.892V191.539H81.8843C81.3456 191.539 80.8123 191.436 80.3152 191.236C79.8181 191.035 79.367 190.742 78.988 190.372C78.609 190.002 78.3097 189.563 78.1073 189.081C77.9049 188.599 77.8034 188.082 77.8088 187.562V152.807H114.191ZM111.638 159.12L111.638 155.423H80.487V187.562C80.4862 187.739 80.5218 187.916 80.5917 188.08C80.6616 188.245 80.7644 188.394 80.8942 188.52C81.024 188.646 81.1783 188.746 81.3482 188.814C81.5181 188.882 81.7003 188.918 81.8843 188.918H95.2753V193.514C98.9781 189.542 102.297 188.918 106.145 188.918H110.139C110.509 188.915 110.862 188.77 111.122 188.516C111.381 188.262 111.526 187.919 111.525 187.562L111.685 184.372H114.191L114.191 159.12H111.638Z" fill="#CC0029"/>
<path d="M98.4406 174.891L97.0986 171.442H92.6826L91.3563 174.891H89.9363L94.2899 163.702H95.5538L99.8918 174.891H98.4406ZM95.429 166.823C95.3978 166.74 95.3458 166.589 95.2729 166.371C95.2001 166.152 95.1273 165.929 95.0545 165.7C94.9921 165.46 94.94 165.278 94.8984 165.154C94.8464 165.362 94.7892 165.575 94.7268 165.793C94.6748 166.001 94.6176 166.194 94.5551 166.371C94.5031 166.548 94.4563 166.698 94.4147 166.823L93.1508 170.194H96.6773L95.429 166.823ZM101.275 163.749H102.586V169.866C102.586 170.126 102.581 170.412 102.571 170.724C102.571 171.026 102.565 171.328 102.555 171.629C102.545 171.931 102.529 172.201 102.508 172.441C102.498 172.67 102.487 172.846 102.477 172.971H102.539L108.672 163.749H110.232V174.891H108.922V168.836C108.922 168.555 108.927 168.254 108.937 167.931C108.948 167.598 108.958 167.281 108.968 166.979C108.989 166.667 109.005 166.392 109.015 166.152C109.026 165.913 109.036 165.736 109.046 165.622H108.984L102.836 174.891H101.275V163.749ZM117.856 164.826C117.263 164.826 116.727 164.93 116.249 165.138C115.77 165.336 115.365 165.632 115.032 166.027C114.699 166.412 114.444 166.886 114.267 167.447C114.09 167.999 114.002 168.623 114.002 169.32C114.002 170.235 114.142 171.031 114.423 171.707C114.715 172.384 115.141 172.904 115.703 173.268C116.275 173.632 116.988 173.814 117.841 173.814C118.33 173.814 118.792 173.772 119.229 173.689C119.666 173.606 120.093 173.502 120.509 173.377V174.594C120.093 174.75 119.661 174.865 119.214 174.937C118.777 175.01 118.251 175.047 117.638 175.047C116.504 175.047 115.557 174.813 114.798 174.344C114.038 173.876 113.466 173.211 113.081 172.347C112.707 171.484 112.52 170.469 112.52 169.304C112.52 168.462 112.634 167.692 112.863 166.995C113.102 166.298 113.445 165.695 113.893 165.185C114.35 164.675 114.912 164.285 115.578 164.014C116.244 163.734 117.008 163.593 117.872 163.593C118.444 163.593 118.995 163.65 119.526 163.765C120.056 163.879 120.53 164.04 120.946 164.249L120.384 165.434C120.041 165.278 119.656 165.138 119.229 165.013C118.813 164.888 118.356 164.826 117.856 164.826ZM131.811 174.891L128.144 165.122H128.081C128.102 165.33 128.118 165.596 128.128 165.918C128.149 166.241 128.164 166.594 128.175 166.979C128.185 167.354 128.19 167.739 128.19 168.134V174.891H126.895V163.749H128.971L132.404 172.878H132.466L135.961 163.749H138.021V174.891H136.632V168.04C136.632 167.676 136.638 167.317 136.648 166.964C136.658 166.6 136.674 166.261 136.695 165.949C136.716 165.627 136.731 165.356 136.742 165.138H136.679L132.965 174.891H131.811ZM147.98 170.693C147.98 171.39 147.887 172.009 147.699 172.55C147.522 173.081 147.262 173.533 146.919 173.908C146.586 174.282 146.175 174.568 145.686 174.766C145.208 174.953 144.672 175.047 144.079 175.047C143.528 175.047 143.018 174.953 142.55 174.766C142.082 174.568 141.676 174.282 141.333 173.908C140.989 173.533 140.719 173.081 140.521 172.55C140.334 172.009 140.24 171.39 140.24 170.693C140.24 169.767 140.397 168.987 140.709 168.352C141.021 167.707 141.468 167.219 142.051 166.886C142.633 166.542 143.325 166.371 144.126 166.371C144.885 166.371 145.551 166.542 146.123 166.886C146.706 167.219 147.158 167.707 147.481 168.352C147.814 168.987 147.98 169.767 147.98 170.693ZM141.66 170.693C141.66 171.348 141.744 171.921 141.91 172.41C142.087 172.888 142.357 173.257 142.722 173.517C143.086 173.778 143.549 173.908 144.11 173.908C144.672 173.908 145.135 173.778 145.499 173.517C145.863 173.257 146.128 172.888 146.295 172.41C146.472 171.921 146.56 171.348 146.56 170.693C146.56 170.027 146.472 169.46 146.295 168.992C146.118 168.524 145.848 168.165 145.484 167.916C145.13 167.655 144.667 167.525 144.095 167.525C143.242 167.525 142.623 167.806 142.238 168.368C141.853 168.93 141.66 169.705 141.66 170.693ZM153.355 175.047C152.617 175.047 151.956 174.896 151.374 174.594C150.801 174.292 150.349 173.824 150.016 173.19C149.694 172.555 149.532 171.744 149.532 170.755C149.532 169.726 149.704 168.888 150.047 168.243C150.391 167.598 150.853 167.125 151.436 166.823C152.029 166.522 152.7 166.371 153.449 166.371C153.876 166.371 154.286 166.418 154.682 166.511C155.077 166.594 155.4 166.698 155.649 166.823L155.228 167.962C154.978 167.869 154.687 167.78 154.354 167.697C154.021 167.614 153.709 167.572 153.418 167.572C152.856 167.572 152.393 167.692 152.029 167.931C151.665 168.17 151.394 168.524 151.218 168.992C151.041 169.46 150.952 170.043 150.952 170.74C150.952 171.406 151.041 171.973 151.218 172.441C151.394 172.909 151.66 173.263 152.013 173.502C152.367 173.741 152.809 173.861 153.34 173.861C153.797 173.861 154.198 173.814 154.541 173.72C154.895 173.627 155.217 173.512 155.509 173.377V174.594C155.228 174.74 154.916 174.849 154.573 174.922C154.24 175.005 153.834 175.047 153.355 175.047ZM163.708 174.891H162.32V167.666H159.854C159.75 168.987 159.62 170.116 159.464 171.052C159.308 171.978 159.11 172.732 158.871 173.315C158.632 173.897 158.346 174.324 158.013 174.594C157.68 174.865 157.29 175 156.842 175C156.707 175 156.572 174.989 156.437 174.969C156.312 174.958 156.208 174.932 156.125 174.891V173.861C156.187 173.882 156.255 173.897 156.328 173.908C156.4 173.918 156.473 173.923 156.546 173.923C156.775 173.923 156.983 173.83 157.17 173.642C157.357 173.455 157.524 173.169 157.669 172.784C157.826 172.399 157.966 171.915 158.091 171.333C158.216 170.74 158.325 170.043 158.418 169.242C158.512 168.441 158.595 167.536 158.668 166.527H163.708V174.891ZM167.502 171.629C167.502 171.723 167.497 171.858 167.486 172.035C167.486 172.201 167.481 172.384 167.471 172.581C167.46 172.768 167.45 172.95 167.44 173.127C167.429 173.294 167.419 173.429 167.408 173.533L171.887 166.527H173.572V174.891H172.293V169.96C172.293 169.793 172.293 169.575 172.293 169.304C172.303 169.034 172.313 168.769 172.324 168.508C172.334 168.238 172.345 168.035 172.355 167.9L167.908 174.891H166.207V166.527H167.502V171.629ZM184.333 177.793H182.991V174.891H176.078V166.527H177.451V173.736H181.773V166.527H183.147V173.752H184.333V177.793ZM189.011 166.371C189.729 166.371 190.343 166.527 190.853 166.839C191.373 167.151 191.768 167.593 192.038 168.165C192.319 168.727 192.46 169.388 192.46 170.147V170.974H186.733C186.754 171.921 186.993 172.644 187.451 173.143C187.919 173.632 188.569 173.876 189.401 173.876C189.932 173.876 190.4 173.83 190.806 173.736C191.222 173.632 191.648 173.486 192.085 173.299V174.501C191.659 174.688 191.237 174.823 190.821 174.906C190.405 175 189.911 175.047 189.339 175.047C188.548 175.047 187.846 174.885 187.232 174.563C186.629 174.24 186.156 173.762 185.812 173.127C185.479 172.482 185.313 171.697 185.313 170.771C185.313 169.856 185.464 169.07 185.766 168.415C186.078 167.759 186.509 167.255 187.061 166.901C187.622 166.548 188.273 166.371 189.011 166.371ZM188.996 167.494C188.34 167.494 187.82 167.707 187.435 168.134C187.061 168.55 186.837 169.133 186.764 169.882H191.024C191.024 169.403 190.951 168.987 190.806 168.633C190.66 168.28 190.436 168.004 190.135 167.806C189.843 167.598 189.464 167.494 188.996 167.494ZM195.806 166.527V170.006H200.347V166.527H201.72V174.891H200.347V171.161H195.806V174.891H194.433V166.527H195.806ZM206.413 166.371C207.047 166.371 207.599 166.459 208.067 166.636C208.535 166.802 208.899 167.052 209.159 167.385C209.419 167.707 209.549 168.103 209.549 168.571C209.549 169.081 209.409 169.486 209.128 169.788C208.847 170.079 208.462 170.293 207.973 170.428V170.49C208.306 170.584 208.613 170.714 208.894 170.88C209.175 171.047 209.398 171.265 209.565 171.536C209.742 171.806 209.83 172.155 209.83 172.581C209.83 173.039 209.7 173.455 209.44 173.83C209.19 174.204 208.8 174.501 208.27 174.719C207.749 174.937 207.078 175.047 206.257 175.047C205.861 175.047 205.482 175.026 205.117 174.984C204.764 174.943 204.441 174.88 204.15 174.797C203.869 174.714 203.619 174.615 203.401 174.501V173.268C203.755 173.434 204.171 173.585 204.649 173.72C205.138 173.856 205.669 173.923 206.241 173.923C206.657 173.923 207.032 173.876 207.365 173.783C207.708 173.689 207.978 173.543 208.176 173.346C208.374 173.138 208.472 172.857 208.472 172.503C208.472 172.181 208.384 171.921 208.207 171.723C208.03 171.515 207.765 171.359 207.411 171.255C207.068 171.151 206.626 171.099 206.085 171.099H204.961V169.975H205.866C206.584 169.975 207.156 169.882 207.583 169.694C208.02 169.497 208.238 169.164 208.238 168.696C208.238 168.3 208.072 168.004 207.739 167.806C207.417 167.609 206.948 167.51 206.335 167.51C205.877 167.51 205.471 167.557 205.117 167.65C204.774 167.733 204.394 167.864 203.978 168.04L203.495 166.948C203.942 166.75 204.41 166.605 204.899 166.511C205.388 166.418 205.893 166.371 206.413 166.371ZM213.001 171.629C213.001 171.723 212.996 171.858 212.986 172.035C212.986 172.201 212.98 172.384 212.97 172.581C212.96 172.768 212.949 172.95 212.939 173.127C212.928 173.294 212.918 173.429 212.908 173.533L217.386 166.527H219.071V174.891H217.792V169.96C217.792 169.793 217.792 169.575 217.792 169.304C217.802 169.034 217.813 168.769 217.823 168.508C217.833 168.238 217.844 168.035 217.854 167.9L213.407 174.891H211.706V166.527H213.001V171.629ZM222.092 174.891H220.5L222.888 171.38C222.565 171.296 222.253 171.166 221.952 170.99C221.65 170.802 221.405 170.547 221.218 170.225C221.031 169.892 220.937 169.481 220.937 168.992C220.937 168.191 221.208 167.583 221.749 167.167C222.29 166.74 223.007 166.527 223.902 166.527H227.647V174.891H226.274V171.567H224.245L222.092 174.891ZM222.264 169.008C222.264 169.486 222.44 169.845 222.794 170.085C223.158 170.313 223.663 170.428 224.308 170.428H226.274V167.666H224.043C223.408 167.666 222.95 167.791 222.669 168.04C222.399 168.29 222.264 168.613 222.264 169.008Z" fill="#111111"/>
<path d="M92.7901 177.919V181.936H93.3666V183.635H92.8217V182.443H89.7107V183.635H89.1658V181.936H89.5143C89.6664 181.675 89.81 181.381 89.9452 181.056C90.0846 180.731 90.2071 180.39 90.3127 180.036C90.4183 179.677 90.5048 179.318 90.5724 178.959C90.64 178.599 90.6823 178.253 90.6992 177.919H92.7901ZM91.1997 178.433C91.1828 178.678 91.1406 178.954 91.073 179.263C91.0096 179.571 90.9273 179.888 90.8259 180.213C90.7287 180.534 90.6189 180.845 90.4964 181.144C90.3781 181.444 90.2514 181.708 90.1162 181.936H92.2262V178.433H91.1997ZM95.232 178.984C95.5235 178.984 95.7727 179.047 95.9797 179.174C96.1909 179.301 96.3514 179.48 96.4612 179.713C96.5753 179.941 96.6323 180.209 96.6323 180.517V180.853H94.307C94.3154 181.237 94.4126 181.531 94.5984 181.734C94.7885 181.932 95.0525 182.032 95.3904 182.032C95.6059 182.032 95.7959 182.013 95.9607 181.974C96.1296 181.932 96.3028 181.873 96.4802 181.797V182.285C96.3071 182.361 96.136 182.416 95.967 182.45C95.7981 182.488 95.5974 182.507 95.3651 182.507C95.0441 182.507 94.7589 182.441 94.5097 182.31C94.2647 182.179 94.0725 181.985 93.9331 181.727C93.798 181.465 93.7304 181.147 93.7304 180.771C93.7304 180.399 93.7916 180.08 93.9141 179.814C94.0408 179.548 94.2161 179.343 94.44 179.199C94.6681 179.056 94.9321 178.984 95.232 178.984ZM95.2257 179.44C94.9596 179.44 94.7484 179.527 94.5921 179.7C94.44 179.869 94.3492 180.105 94.3196 180.409H96.0494C96.0494 180.215 96.0198 180.046 95.9607 179.903C95.9015 179.759 95.8107 179.647 95.6882 179.567C95.57 179.482 95.4158 179.44 95.2257 179.44ZM100.24 179.047V182.443H99.6828V179.522H97.9277V182.443H97.3702V179.047H100.24ZM102.484 178.99C102.897 178.99 103.204 179.081 103.402 179.263C103.601 179.444 103.7 179.734 103.7 180.131V182.443H103.295L103.187 181.962H103.161C103.064 182.084 102.963 182.188 102.857 182.272C102.756 182.353 102.638 182.412 102.503 182.45C102.372 182.488 102.211 182.507 102.021 182.507C101.818 182.507 101.634 182.471 101.47 182.399C101.309 182.327 101.183 182.217 101.09 182.07C100.997 181.917 100.95 181.727 100.95 181.499C100.95 181.161 101.083 180.902 101.349 180.72C101.615 180.534 102.025 180.433 102.579 180.416L103.155 180.397V180.194C103.155 179.911 103.094 179.715 102.971 179.605C102.849 179.495 102.676 179.44 102.452 179.44C102.274 179.44 102.105 179.468 101.945 179.522C101.784 179.573 101.634 179.632 101.495 179.7L101.324 179.282C101.472 179.201 101.647 179.134 101.85 179.079C102.053 179.02 102.264 178.99 102.484 178.99ZM102.648 180.802C102.226 180.819 101.932 180.887 101.768 181.005C101.607 181.123 101.527 181.29 101.527 181.506C101.527 181.696 101.584 181.835 101.698 181.924C101.816 182.013 101.966 182.057 102.148 182.057C102.435 182.057 102.674 181.979 102.864 181.822C103.054 181.662 103.149 181.417 103.149 181.087V180.783L102.648 180.802ZM106.238 178.984C106.656 178.984 106.992 179.13 107.245 179.421C107.503 179.713 107.632 180.152 107.632 180.739C107.632 181.123 107.573 181.449 107.454 181.715C107.34 181.977 107.178 182.175 106.967 182.31C106.76 182.441 106.515 182.507 106.232 182.507C106.058 182.507 105.904 182.483 105.769 182.437C105.634 182.391 105.518 182.331 105.421 182.26C105.328 182.184 105.247 182.101 105.18 182.013H105.142C105.15 182.084 105.159 182.175 105.167 182.285C105.176 182.395 105.18 182.49 105.18 182.57V183.964H104.622V179.047H105.078L105.154 179.51H105.18C105.247 179.413 105.328 179.324 105.421 179.244C105.518 179.163 105.632 179.1 105.763 179.054C105.898 179.007 106.056 178.984 106.238 178.984ZM106.137 179.453C105.908 179.453 105.725 179.497 105.585 179.586C105.446 179.67 105.345 179.799 105.281 179.972C105.218 180.145 105.184 180.365 105.18 180.631V180.739C105.18 181.018 105.209 181.254 105.269 181.449C105.328 181.643 105.427 181.791 105.566 181.892C105.71 181.993 105.904 182.044 106.149 182.044C106.356 182.044 106.525 181.987 106.656 181.873C106.791 181.759 106.891 181.605 106.954 181.411C107.022 181.212 107.055 180.986 107.055 180.733C107.055 180.344 106.979 180.034 106.827 179.801C106.679 179.569 106.449 179.453 106.137 179.453ZM110.676 179.516H109.567V182.443H109.016V179.516H107.92V179.047H110.676V179.516ZM112.505 178.99C112.919 178.99 113.225 179.081 113.423 179.263C113.622 179.444 113.721 179.734 113.721 180.131V182.443H113.316L113.208 181.962H113.183C113.085 182.084 112.984 182.188 112.879 182.272C112.777 182.353 112.659 182.412 112.524 182.45C112.393 182.488 112.232 182.507 112.042 182.507C111.839 182.507 111.656 182.471 111.491 182.399C111.33 182.327 111.204 182.217 111.111 182.07C111.018 181.917 110.971 181.727 110.971 181.499C110.971 181.161 111.104 180.902 111.371 180.72C111.637 180.534 112.046 180.433 112.6 180.416L113.176 180.397V180.194C113.176 179.911 113.115 179.715 112.993 179.605C112.87 179.495 112.697 179.44 112.473 179.44C112.296 179.44 112.127 179.468 111.966 179.522C111.806 179.573 111.656 179.632 111.516 179.7L111.345 179.282C111.493 179.201 111.668 179.134 111.871 179.079C112.074 179.02 112.285 178.99 112.505 178.99ZM112.669 180.802C112.247 180.819 111.953 180.887 111.789 181.005C111.628 181.123 111.548 181.29 111.548 181.506C111.548 181.696 111.605 181.835 111.719 181.924C111.837 182.013 111.987 182.057 112.169 182.057C112.456 182.057 112.695 181.979 112.885 181.822C113.075 181.662 113.17 181.417 113.17 181.087V180.783L112.669 180.802ZM118.287 179.047V182.443H117.786V180.276C117.786 180.188 117.788 180.095 117.792 179.998C117.801 179.9 117.809 179.805 117.818 179.713H117.799L116.69 182.443H116.221L115.144 179.713H115.125C115.133 179.805 115.138 179.9 115.138 179.998C115.142 180.095 115.144 180.194 115.144 180.295V182.443H114.643V179.047H115.385L116.456 181.778L117.545 179.047H118.287ZM120.556 178.984C120.847 178.984 121.096 179.047 121.303 179.174C121.514 179.301 121.675 179.48 121.785 179.713C121.899 179.941 121.956 180.209 121.956 180.517V180.853H119.631C119.639 181.237 119.736 181.531 119.922 181.734C120.112 181.932 120.376 182.032 120.714 182.032C120.929 182.032 121.119 182.013 121.284 181.974C121.453 181.932 121.626 181.873 121.804 181.797V182.285C121.631 182.361 121.46 182.416 121.291 182.45C121.122 182.488 120.921 182.507 120.689 182.507C120.368 182.507 120.082 182.441 119.833 182.31C119.588 182.179 119.396 181.985 119.257 181.727C119.122 181.465 119.054 181.147 119.054 180.771C119.054 180.399 119.115 180.08 119.238 179.814C119.364 179.548 119.54 179.343 119.764 179.199C119.992 179.056 120.256 178.984 120.556 178.984ZM120.549 179.44C120.283 179.44 120.072 179.527 119.916 179.7C119.764 179.869 119.673 180.105 119.643 180.409H121.373C121.373 180.215 121.343 180.046 121.284 179.903C121.225 179.759 121.134 179.647 121.012 179.567C120.893 179.482 120.739 179.44 120.549 179.44ZM123.251 179.047V180.46H125.095V179.047H125.653V182.443H125.095V180.929H123.251V182.443H122.694V179.047H123.251ZM128.946 179.516H127.837V182.443H127.286V179.516H126.189V179.047H128.946V179.516ZM133.494 179.516H132.385V182.443H131.834V179.516H130.738V179.047H133.494V179.516ZM136.927 180.739C136.927 181.022 136.889 181.273 136.813 181.493C136.741 181.708 136.635 181.892 136.496 182.044C136.361 182.196 136.194 182.312 135.995 182.393C135.801 182.469 135.584 182.507 135.343 182.507C135.119 182.507 134.912 182.469 134.722 182.393C134.532 182.312 134.367 182.196 134.228 182.044C134.088 181.892 133.978 181.708 133.898 181.493C133.822 181.273 133.784 181.022 133.784 180.739C133.784 180.363 133.847 180.046 133.974 179.789C134.101 179.527 134.283 179.328 134.519 179.193C134.756 179.054 135.037 178.984 135.362 178.984C135.67 178.984 135.94 179.054 136.173 179.193C136.409 179.328 136.593 179.527 136.724 179.789C136.859 180.046 136.927 180.363 136.927 180.739ZM134.361 180.739C134.361 181.005 134.394 181.237 134.462 181.436C134.534 181.63 134.644 181.78 134.792 181.886C134.939 181.991 135.127 182.044 135.355 182.044C135.584 182.044 135.771 181.991 135.919 181.886C136.067 181.78 136.175 181.63 136.242 181.436C136.314 181.237 136.35 181.005 136.35 180.739C136.35 180.469 136.314 180.238 136.242 180.048C136.171 179.858 136.061 179.713 135.913 179.611C135.769 179.506 135.581 179.453 135.349 179.453C135.003 179.453 134.751 179.567 134.595 179.795C134.439 180.023 134.361 180.338 134.361 180.739ZM139.299 178.984C139.718 178.984 140.053 179.13 140.307 179.421C140.565 179.713 140.693 180.152 140.693 180.739C140.693 181.123 140.634 181.449 140.516 181.715C140.402 181.977 140.239 182.175 140.028 182.31C139.821 182.441 139.576 182.507 139.293 182.507C139.12 182.507 138.966 182.483 138.831 182.437C138.695 182.391 138.579 182.331 138.482 182.26C138.389 182.184 138.309 182.101 138.241 182.013H138.203C138.212 182.084 138.22 182.175 138.229 182.285C138.237 182.395 138.241 182.49 138.241 182.57V183.964H137.684V179.047H138.14L138.216 179.51H138.241C138.309 179.413 138.389 179.324 138.482 179.244C138.579 179.163 138.693 179.1 138.824 179.054C138.959 179.007 139.118 178.984 139.299 178.984ZM139.198 179.453C138.97 179.453 138.786 179.497 138.647 179.586C138.507 179.67 138.406 179.799 138.343 179.972C138.279 180.145 138.246 180.365 138.241 180.631V180.739C138.241 181.018 138.271 181.254 138.33 181.449C138.389 181.643 138.488 181.791 138.628 181.892C138.771 181.993 138.966 182.044 139.211 182.044C139.418 182.044 139.587 181.987 139.718 181.873C139.853 181.759 139.952 181.605 140.015 181.411C140.083 181.212 140.117 180.986 140.117 180.733C140.117 180.344 140.041 180.034 139.889 179.801C139.741 179.569 139.511 179.453 139.198 179.453ZM143.527 179.047V179.516H142.013V182.443H141.455V179.047H143.527ZM146.96 180.739C146.96 181.022 146.922 181.273 146.846 181.493C146.774 181.708 146.669 181.892 146.529 182.044C146.394 182.196 146.227 182.312 146.029 182.393C145.835 182.469 145.617 182.507 145.376 182.507C145.152 182.507 144.945 182.469 144.755 182.393C144.565 182.312 144.401 182.196 144.261 182.044C144.122 181.892 144.012 181.708 143.932 181.493C143.856 181.273 143.818 181.022 143.818 180.739C143.818 180.363 143.881 180.046 144.008 179.789C144.134 179.527 144.316 179.328 144.553 179.193C144.789 179.054 145.07 178.984 145.395 178.984C145.704 178.984 145.974 179.054 146.206 179.193C146.443 179.328 146.627 179.527 146.758 179.789C146.893 180.046 146.96 180.363 146.96 180.739ZM144.394 180.739C144.394 181.005 144.428 181.237 144.496 181.436C144.567 181.63 144.677 181.78 144.825 181.886C144.973 181.991 145.161 182.044 145.389 182.044C145.617 182.044 145.805 181.991 145.953 181.886C146.101 181.78 146.208 181.63 146.276 181.436C146.348 181.237 146.384 181.005 146.384 180.739C146.384 180.469 146.348 180.238 146.276 180.048C146.204 179.858 146.094 179.713 145.947 179.611C145.803 179.506 145.615 179.453 145.383 179.453C145.036 179.453 144.785 179.567 144.629 179.795C144.472 180.023 144.394 180.338 144.394 180.739ZM150.448 179.903C150.448 180.114 150.385 180.279 150.258 180.397C150.131 180.515 149.969 180.595 149.77 180.638V180.663C149.981 180.692 150.165 180.769 150.321 180.891C150.478 181.009 150.556 181.195 150.556 181.449C150.556 181.592 150.528 181.725 150.473 181.848C150.423 181.97 150.343 182.076 150.233 182.165C150.123 182.253 149.981 182.323 149.808 182.374C149.635 182.42 149.426 182.443 149.181 182.443H147.717V179.047H149.175C149.415 179.047 149.631 179.075 149.821 179.13C150.015 179.18 150.167 179.269 150.277 179.396C150.391 179.518 150.448 179.687 150.448 179.903ZM149.979 181.449C149.979 181.254 149.905 181.115 149.757 181.03C149.61 180.946 149.392 180.904 149.105 180.904H148.275V181.993H149.118C149.396 181.993 149.61 181.953 149.757 181.873C149.905 181.789 149.979 181.647 149.979 181.449ZM149.884 179.972C149.884 179.812 149.825 179.696 149.707 179.624C149.593 179.548 149.405 179.51 149.143 179.51H148.275V180.441H149.042C149.316 180.441 149.525 180.403 149.669 180.327C149.812 180.251 149.884 180.133 149.884 179.972ZM153.826 182.443H153.262V179.51H152.261C152.219 180.046 152.166 180.505 152.103 180.885C152.04 181.261 151.959 181.567 151.862 181.803C151.765 182.04 151.649 182.213 151.514 182.323C151.379 182.433 151.22 182.488 151.038 182.488C150.984 182.488 150.929 182.483 150.874 182.475C150.823 182.471 150.781 182.46 150.747 182.443V182.025C150.772 182.034 150.8 182.04 150.829 182.044C150.859 182.048 150.889 182.051 150.918 182.051C151.011 182.051 151.095 182.013 151.172 181.936C151.248 181.86 151.315 181.744 151.374 181.588C151.438 181.432 151.495 181.235 151.545 180.999C151.596 180.758 151.64 180.475 151.678 180.15C151.716 179.824 151.75 179.457 151.78 179.047H153.826V182.443ZM155.303 181.119C155.303 181.157 155.301 181.212 155.297 181.284C155.297 181.351 155.295 181.425 155.291 181.506C155.287 181.582 155.282 181.656 155.278 181.727C155.274 181.795 155.27 181.85 155.265 181.892L157.084 179.047H157.768V182.443H157.249V180.441C157.249 180.374 157.249 180.285 157.249 180.175C157.253 180.065 157.257 179.958 157.261 179.852C157.266 179.742 157.27 179.66 157.274 179.605L155.468 182.443H154.778V179.047H155.303V181.119ZM160.91 181.119C160.91 181.157 160.908 181.212 160.903 181.284C160.903 181.351 160.901 181.425 160.897 181.506C160.893 181.582 160.889 181.656 160.884 181.727C160.88 181.795 160.876 181.85 160.872 181.892L162.69 179.047H163.374V182.443H162.855V180.441C162.855 180.374 162.855 180.285 162.855 180.175C162.859 180.065 162.863 179.958 162.867 179.852C162.872 179.742 162.876 179.66 162.88 179.605L161.074 182.443H160.384V179.047H160.91V181.119ZM165.458 179.047H166.053L166.788 180.98C166.831 181.094 166.869 181.204 166.902 181.309C166.94 181.415 166.974 181.518 167.004 181.62C167.033 181.717 167.057 181.812 167.073 181.905H167.099C167.124 181.799 167.164 181.662 167.219 181.493C167.274 181.32 167.331 181.147 167.39 180.973L168.081 179.047H168.683L167.219 182.912C167.139 183.123 167.044 183.307 166.934 183.463C166.828 183.624 166.697 183.746 166.541 183.831C166.389 183.92 166.203 183.964 165.984 183.964C165.882 183.964 165.794 183.958 165.717 183.945C165.641 183.937 165.576 183.926 165.521 183.913V183.47C165.568 183.478 165.622 183.487 165.686 183.495C165.753 183.504 165.823 183.508 165.895 183.508C166.026 183.508 166.138 183.482 166.231 183.432C166.328 183.385 166.41 183.316 166.478 183.223C166.545 183.134 166.602 183.028 166.649 182.906L166.826 182.456L165.458 179.047ZM170.455 182.507C170.155 182.507 169.887 182.445 169.651 182.323C169.418 182.2 169.235 182.01 169.099 181.753C168.969 181.495 168.903 181.166 168.903 180.764C168.903 180.346 168.973 180.006 169.112 179.744C169.252 179.482 169.44 179.29 169.676 179.168C169.917 179.045 170.189 178.984 170.493 178.984C170.667 178.984 170.833 179.003 170.994 179.041C171.154 179.075 171.285 179.117 171.387 179.168L171.216 179.63C171.114 179.592 170.996 179.556 170.861 179.522C170.726 179.489 170.599 179.472 170.481 179.472C170.253 179.472 170.065 179.52 169.917 179.617C169.769 179.715 169.659 179.858 169.587 180.048C169.516 180.238 169.48 180.475 169.48 180.758C169.48 181.028 169.516 181.259 169.587 181.449C169.659 181.639 169.767 181.782 169.91 181.879C170.054 181.977 170.234 182.025 170.449 182.025C170.635 182.025 170.798 182.006 170.937 181.968C171.081 181.93 171.211 181.884 171.33 181.829V182.323C171.216 182.382 171.089 182.426 170.95 182.456C170.814 182.49 170.65 182.507 170.455 182.507ZM174.596 182.443H174.032V179.51H173.031C172.989 180.046 172.936 180.505 172.872 180.885C172.809 181.261 172.729 181.567 172.632 181.803C172.534 182.04 172.418 182.213 172.283 182.323C172.148 182.433 171.99 182.488 171.808 182.488C171.753 182.488 171.698 182.483 171.643 182.475C171.593 182.471 171.55 182.46 171.516 182.443V182.025C171.542 182.034 171.569 182.04 171.599 182.044C171.628 182.048 171.658 182.051 171.688 182.051C171.78 182.051 171.865 182.013 171.941 181.936C172.017 181.86 172.085 181.744 172.144 181.588C172.207 181.432 172.264 181.235 172.315 180.999C172.366 180.758 172.41 180.475 172.448 180.15C172.486 179.824 172.52 179.457 172.549 179.047H174.596V182.443ZM175.015 179.047H175.61L176.345 180.98C176.388 181.094 176.426 181.204 176.459 181.309C176.497 181.415 176.531 181.518 176.561 181.62C176.59 181.717 176.614 181.812 176.63 181.905H176.656C176.681 181.799 176.721 181.662 176.776 181.493C176.831 181.32 176.888 181.147 176.947 180.973L177.638 179.047H178.24L176.776 182.912C176.696 183.123 176.601 183.307 176.491 183.463C176.386 183.624 176.255 183.746 176.098 183.831C175.946 183.92 175.76 183.964 175.541 183.964C175.439 183.964 175.351 183.958 175.275 183.945C175.199 183.937 175.133 183.926 175.078 183.913V183.47C175.125 183.478 175.18 183.487 175.243 183.495C175.31 183.504 175.38 183.508 175.452 183.508C175.583 183.508 175.695 183.482 175.788 183.432C175.885 183.385 175.967 183.316 176.035 183.223C176.102 183.134 176.16 183.028 176.206 182.906L176.383 182.456L175.015 179.047ZM180.722 179.047V179.516H179.208V182.443H178.65V179.047H180.722ZM184.998 179.047V179.516H183.484V182.443H182.926V179.047H184.998ZM188.431 180.739C188.431 181.022 188.393 181.273 188.317 181.493C188.245 181.708 188.14 181.892 188 182.044C187.865 182.196 187.698 182.312 187.5 182.393C187.305 182.469 187.088 182.507 186.847 182.507C186.623 182.507 186.416 182.469 186.226 182.393C186.036 182.312 185.871 182.196 185.732 182.044C185.593 181.892 185.483 181.708 185.403 181.493C185.327 181.273 185.289 181.022 185.289 180.739C185.289 180.363 185.352 180.046 185.479 179.789C185.605 179.527 185.787 179.328 186.023 179.193C186.26 179.054 186.541 178.984 186.866 178.984C187.175 178.984 187.445 179.054 187.677 179.193C187.914 179.328 188.098 179.527 188.228 179.789C188.364 180.046 188.431 180.363 188.431 180.739ZM185.865 180.739C185.865 181.005 185.899 181.237 185.966 181.436C186.038 181.63 186.148 181.78 186.296 181.886C186.444 181.991 186.632 182.044 186.86 182.044C187.088 182.044 187.276 181.991 187.424 181.886C187.572 181.78 187.679 181.63 187.747 181.436C187.819 181.237 187.855 181.005 187.855 180.739C187.855 180.469 187.819 180.238 187.747 180.048C187.675 179.858 187.565 179.713 187.417 179.611C187.274 179.506 187.086 179.453 186.854 179.453C186.507 179.453 186.256 179.567 186.1 179.795C185.943 180.023 185.865 180.338 185.865 180.739ZM190.804 178.984C191.222 178.984 191.558 179.13 191.811 179.421C192.069 179.713 192.198 180.152 192.198 180.739C192.198 181.123 192.139 181.449 192.02 181.715C191.906 181.977 191.744 182.175 191.533 182.31C191.326 182.441 191.081 182.507 190.798 182.507C190.624 182.507 190.47 182.483 190.335 182.437C190.2 182.391 190.084 182.331 189.987 182.26C189.894 182.184 189.813 182.101 189.746 182.013H189.708C189.716 182.084 189.725 182.175 189.733 182.285C189.742 182.395 189.746 182.49 189.746 182.57V183.964H189.188V179.047H189.644L189.72 179.51H189.746C189.813 179.413 189.894 179.324 189.987 179.244C190.084 179.163 190.198 179.1 190.329 179.054C190.464 179.007 190.622 178.984 190.804 178.984ZM190.702 179.453C190.474 179.453 190.291 179.497 190.151 179.586C190.012 179.67 189.91 179.799 189.847 179.972C189.784 180.145 189.75 180.365 189.746 180.631V180.739C189.746 181.018 189.775 181.254 189.834 181.449C189.894 181.643 189.993 181.791 190.132 181.892C190.276 181.993 190.47 182.044 190.715 182.044C190.922 182.044 191.091 181.987 191.222 181.873C191.357 181.759 191.456 181.605 191.52 181.411C191.587 181.212 191.621 180.986 191.621 180.733C191.621 180.344 191.545 180.034 191.393 179.801C191.245 179.569 191.015 179.453 190.702 179.453ZM195.912 180.739C195.912 181.022 195.874 181.273 195.798 181.493C195.726 181.708 195.621 181.892 195.481 182.044C195.346 182.196 195.179 182.312 194.981 182.393C194.787 182.469 194.569 182.507 194.328 182.507C194.104 182.507 193.897 182.469 193.707 182.393C193.517 182.312 193.352 182.196 193.213 182.044C193.074 181.892 192.964 181.708 192.884 181.493C192.808 181.273 192.77 181.022 192.77 180.739C192.77 180.363 192.833 180.046 192.96 179.789C193.086 179.527 193.268 179.328 193.505 179.193C193.741 179.054 194.022 178.984 194.347 178.984C194.656 178.984 194.926 179.054 195.158 179.193C195.395 179.328 195.579 179.527 195.709 179.789C195.845 180.046 195.912 180.363 195.912 180.739ZM193.346 180.739C193.346 181.005 193.38 181.237 193.448 181.436C193.519 181.63 193.629 181.78 193.777 181.886C193.925 181.991 194.113 182.044 194.341 182.044C194.569 182.044 194.757 181.991 194.905 181.886C195.053 181.78 195.16 181.63 195.228 181.436C195.3 181.237 195.336 181.005 195.336 180.739C195.336 180.469 195.3 180.238 195.228 180.048C195.156 179.858 195.046 179.713 194.898 179.611C194.755 179.506 194.567 179.453 194.335 179.453C193.988 179.453 193.737 179.567 193.581 179.795C193.424 180.023 193.346 180.338 193.346 180.739ZM199.191 179.047V181.974H199.685V183.622H199.147V182.443H196.783V183.622H196.251V181.974H196.523C196.718 181.704 196.878 181.411 197.005 181.094C197.136 180.773 197.233 180.439 197.296 180.093C197.364 179.742 197.4 179.394 197.404 179.047H199.191ZM197.898 179.484C197.882 179.772 197.837 180.069 197.765 180.378C197.694 180.682 197.601 180.973 197.487 181.252C197.377 181.531 197.248 181.772 197.1 181.974H198.652V179.484H197.898ZM201.51 178.99C201.924 178.99 202.231 179.081 202.429 179.263C202.628 179.444 202.727 179.734 202.727 180.131V182.443H202.321L202.214 181.962H202.188C202.091 182.084 201.99 182.188 201.884 182.272C201.783 182.353 201.664 182.412 201.529 182.45C201.398 182.488 201.238 182.507 201.048 182.507C200.845 182.507 200.661 182.471 200.497 182.399C200.336 182.327 200.209 182.217 200.116 182.07C200.023 181.917 199.977 181.727 199.977 181.499C199.977 181.161 200.11 180.902 200.376 180.72C200.642 180.534 201.052 180.433 201.605 180.416L202.182 180.397V180.194C202.182 179.911 202.121 179.715 201.998 179.605C201.876 179.495 201.703 179.44 201.479 179.44C201.301 179.44 201.132 179.468 200.972 179.522C200.811 179.573 200.661 179.632 200.522 179.7L200.351 179.282C200.499 179.201 200.674 179.134 200.877 179.079C201.079 179.02 201.291 178.99 201.51 178.99ZM201.675 180.802C201.253 180.819 200.959 180.887 200.794 181.005C200.634 181.123 200.554 181.29 200.554 181.506C200.554 181.696 200.611 181.835 200.725 181.924C200.843 182.013 200.993 182.057 201.175 182.057C201.462 182.057 201.7 181.979 201.89 181.822C202.081 181.662 202.176 181.417 202.176 181.087V180.783L201.675 180.802ZM207.382 182.443L205.893 178.477H205.868C205.877 178.561 205.883 178.669 205.887 178.8C205.896 178.931 205.902 179.075 205.906 179.231C205.91 179.383 205.912 179.539 205.912 179.7V182.443H205.387V177.919H206.229L207.623 181.626H207.649L209.068 177.919H209.904V182.443H209.34V179.662C209.34 179.514 209.342 179.368 209.347 179.225C209.351 179.077 209.357 178.94 209.366 178.813C209.374 178.682 209.38 178.572 209.385 178.483H209.359L207.851 182.443H207.382ZM213.885 180.739C213.885 181.022 213.847 181.273 213.771 181.493C213.699 181.708 213.593 181.892 213.454 182.044C213.319 182.196 213.152 182.312 212.953 182.393C212.759 182.469 212.541 182.507 212.301 182.507C212.077 182.507 211.87 182.469 211.68 182.393C211.49 182.312 211.325 182.196 211.186 182.044C211.046 181.892 210.936 181.708 210.856 181.493C210.78 181.273 210.742 181.022 210.742 180.739C210.742 180.363 210.805 180.046 210.932 179.789C211.059 179.527 211.24 179.328 211.477 179.193C211.714 179.054 211.994 178.984 212.32 178.984C212.628 178.984 212.898 179.054 213.131 179.193C213.367 179.328 213.551 179.527 213.682 179.789C213.817 180.046 213.885 180.363 213.885 180.739ZM211.319 180.739C211.319 181.005 211.352 181.237 211.42 181.436C211.492 181.63 211.602 181.78 211.749 181.886C211.897 181.991 212.085 182.044 212.313 182.044C212.541 182.044 212.729 181.991 212.877 181.886C213.025 181.78 213.133 181.63 213.2 181.436C213.272 181.237 213.308 181.005 213.308 180.739C213.308 180.469 213.272 180.238 213.2 180.048C213.129 179.858 213.019 179.713 212.871 179.611C212.727 179.506 212.539 179.453 212.307 179.453C211.961 179.453 211.709 179.567 211.553 179.795C211.397 180.023 211.319 180.338 211.319 180.739ZM216.004 182.507C215.704 182.507 215.436 182.445 215.199 182.323C214.967 182.2 214.783 182.01 214.648 181.753C214.517 181.495 214.452 181.166 214.452 180.764C214.452 180.346 214.521 180.006 214.661 179.744C214.8 179.482 214.988 179.29 215.225 179.168C215.465 179.045 215.738 178.984 216.042 178.984C216.215 178.984 216.382 179.003 216.542 179.041C216.703 179.075 216.834 179.117 216.935 179.168L216.764 179.63C216.663 179.592 216.545 179.556 216.409 179.522C216.274 179.489 216.148 179.472 216.029 179.472C215.801 179.472 215.613 179.52 215.465 179.617C215.317 179.715 215.208 179.858 215.136 180.048C215.064 180.238 215.028 180.475 215.028 180.758C215.028 181.028 215.064 181.259 215.136 181.449C215.208 181.639 215.315 181.782 215.459 181.879C215.603 181.977 215.782 182.025 215.998 182.025C216.183 182.025 216.346 182.006 216.485 181.968C216.629 181.93 216.76 181.884 216.878 181.829V182.323C216.764 182.382 216.638 182.426 216.498 182.456C216.363 182.49 216.198 182.507 216.004 182.507ZM219.568 179.047H220.176L218.725 180.682L220.296 182.443H219.65L218.117 180.72V182.443H217.559V179.047H218.117V180.695L219.568 179.047ZM223.517 179.903C223.517 180.114 223.454 180.279 223.327 180.397C223.2 180.515 223.038 180.595 222.839 180.638V180.663C223.05 180.692 223.234 180.769 223.39 180.891C223.547 181.009 223.625 181.195 223.625 181.449C223.625 181.592 223.597 181.725 223.542 181.848C223.492 181.97 223.411 182.076 223.302 182.165C223.192 182.253 223.05 182.323 222.877 182.374C222.704 182.42 222.495 182.443 222.25 182.443H220.786V179.047H222.243C222.484 179.047 222.7 179.075 222.89 179.13C223.084 179.18 223.236 179.269 223.346 179.396C223.46 179.518 223.517 179.687 223.517 179.903ZM223.048 181.449C223.048 181.254 222.974 181.115 222.826 181.03C222.679 180.946 222.461 180.904 222.174 180.904H221.344V181.993H222.186C222.465 181.993 222.679 181.953 222.826 181.873C222.974 181.789 223.048 181.647 223.048 181.449ZM222.953 179.972C222.953 179.812 222.894 179.696 222.776 179.624C222.662 179.548 222.474 179.51 222.212 179.51H221.344V180.441H222.11C222.385 180.441 222.594 180.403 222.738 180.327C222.881 180.251 222.953 180.133 222.953 179.972ZM224.31 182.443V179.047H224.868V180.441H225.748C226.044 180.441 226.287 180.477 226.477 180.549C226.667 180.621 226.809 180.728 226.902 180.872C226.994 181.011 227.041 181.189 227.041 181.404C227.041 181.615 226.994 181.799 226.902 181.955C226.813 182.112 226.671 182.232 226.477 182.317C226.287 182.401 226.036 182.443 225.723 182.443H224.31ZM225.672 181.993C225.913 181.993 226.11 181.953 226.262 181.873C226.414 181.789 226.49 181.643 226.49 181.436C226.49 181.229 226.42 181.09 226.281 181.018C226.141 180.942 225.941 180.904 225.679 180.904H224.868V181.993H225.672ZM227.605 182.443V179.047H228.162V182.443H227.605Z" fill="#111111"/>
</g>
</g>
<defs>
<clipPath id="clip0_364_1186">
<rect width="306" height="335" fill="white"/>
</clipPath>
<clipPath id="clip1_364_1186">
<rect width="152" height="47.7021" fill="white" transform="translate(77 152)"/>
</clipPath>
</defs>
</svg>
