<svg width="234" height="32" viewBox="0 0 234 32" version="1.1" xmlns="http://www.w3.org/2000/svg" xmlns:xlink="http://www.w3.org/1999/xlink" xml:space="preserve" style="fill-rule:evenodd;clip-rule:evenodd;stroke-linejoin:round;stroke-miterlimit:2;">
    <path d="M0,8.421C0,3.77 3.77,0 8.421,0L23.579,0C28.23,0 32,3.77 32,8.421L32,23.579C32,28.23 28.23,32 23.579,32L8.421,32C3.77,32 0,28.23 0,23.579L0,8.421Z" style="fill:rgb(255,24,0);fill-rule:nonzero;"/>
    <g>
        <path d="M8.421,8.421C8.421,7.491 9.175,6.737 10.106,6.737C11.036,6.737 11.79,7.491 11.79,8.421L11.79,23.579C11.79,24.509 11.036,25.263 10.106,25.263C9.175,25.263 8.421,24.509 8.421,23.579L8.421,8.421Z" style="fill:white;fill-rule:nonzero;"/>
    </g>
    <g transform="matrix(1,0,0,1,29,0)">
        <g opacity="0.9">
            <g transform="matrix(1,0,0,1,-29,0)">
                <path d="M14.737,15.158C14.737,14.227 15.491,13.473 16.421,13.473C17.351,13.473 18.105,14.227 18.105,15.158L18.105,23.579C18.105,24.509 17.351,25.263 16.421,25.263C15.491,25.263 14.737,24.509 14.737,23.579L14.737,15.158Z" style="fill:white;fill-rule:nonzero;"/>
            </g>
        </g>
    </g>
    <g transform="matrix(1,0,0,1,29,0)">
        <g opacity="0.7">
            <g transform="matrix(1,0,0,1,-29,0)">
                <path d="M21.052,10.947C21.052,10.017 21.806,9.263 22.737,9.263C23.667,9.263 24.421,10.017 24.421,10.947L24.421,23.578C24.421,24.509 23.667,25.263 22.737,25.263C21.806,25.263 21.052,24.509 21.052,23.578L21.052,10.947Z" style="fill:white;fill-rule:nonzero;"/>
            </g>
        </g>
    </g>
    <g transform="matrix(1.1165,0,0,1.1165,-9.54957,34.504)">
        <path d="M45.809,-6.983L48.895,-6.983L48.895,-20.63L49.001,-20.63L54.521,-6.983L56.862,-6.983L62.381,-20.63L62.488,-20.63L62.488,-6.983L65.573,-6.983L65.573,-26.176L61.623,-26.176L55.731,-11.519L55.651,-11.519L49.759,-26.176L45.809,-26.176L45.809,-6.983Z" style="fill-rule:nonzero;"/>
        <path d="M75.083,-6.704C79.22,-6.704 81.906,-9.457 81.906,-14.032L81.906,-14.059C81.906,-18.608 79.18,-21.374 75.083,-21.374C70.973,-21.374 68.26,-18.581 68.26,-14.059L68.26,-14.032C68.26,-9.47 70.933,-6.704 75.083,-6.704ZM75.097,-9.377C72.995,-9.377 71.638,-11.066 71.638,-14.032L71.638,-14.059C71.638,-16.985 73.008,-18.688 75.083,-18.688C77.171,-18.688 78.541,-16.999 78.541,-14.059L78.541,-14.032C78.541,-11.08 77.198,-9.377 75.097,-9.377Z" style="fill-rule:nonzero;"/>
        <path d="M90.485,-6.704C94.05,-6.704 96.444,-8.938 96.697,-11.878L96.697,-11.971L93.571,-11.971L93.544,-11.851C93.238,-10.375 92.188,-9.377 90.512,-9.377C88.41,-9.377 87.054,-11.08 87.054,-14.019L87.054,-14.032C87.054,-16.919 88.397,-18.688 90.485,-18.688C92.254,-18.688 93.265,-17.584 93.544,-16.214L93.558,-16.094L96.683,-16.094L96.67,-16.2C96.47,-19.02 94.169,-21.374 90.459,-21.374C86.335,-21.374 83.675,-18.555 83.675,-14.059L83.675,-14.046C83.675,-9.524 86.296,-6.704 90.485,-6.704Z" style="fill-rule:nonzero;"/>
        <path d="M103.56,-13.394L103.905,-18.515L108.334,-18.515L108.334,-6.983L111.66,-6.983L111.66,-21.082L101.019,-21.082L100.554,-13.633C100.394,-11.08 99.915,-9.75 98.492,-9.75C98.133,-9.75 97.867,-9.803 97.734,-9.843L97.734,-7.01C97.947,-6.943 98.386,-6.85 98.998,-6.85C102.309,-6.85 103.294,-9.391 103.56,-13.394Z" style="fill-rule:nonzero;"/>
        <path d="M114.626,-6.983L117.871,-6.983L123.949,-16.453L124.082,-16.453L124.082,-6.983L127.354,-6.983L127.354,-21.082L124.109,-21.082L118.031,-11.678L117.898,-11.678L117.898,-21.082L114.626,-21.082L114.626,-6.983Z" style="fill-rule:nonzero;"/>
        <path d="M141.878,-3.193L144.871,-3.193L144.871,-9.537L142.743,-9.537L142.743,-21.082L139.431,-21.082L139.431,-9.537L133.632,-9.537L133.632,-21.082L130.307,-21.082L130.307,-6.983L141.878,-6.983L141.878,-3.193Z" style="fill-rule:nonzero;"/>
        <path d="M152.878,-6.704C156.562,-6.704 158.637,-8.885 159.089,-11.053L159.116,-11.199L156.017,-11.199L155.99,-11.106C155.671,-10.162 154.607,-9.284 152.944,-9.284C150.79,-9.284 149.433,-10.747 149.393,-13.221L159.262,-13.221L159.262,-14.285C159.262,-18.541 156.762,-21.374 152.718,-21.374C148.688,-21.374 146.095,-18.448 146.095,-14.006L146.095,-13.993C146.095,-9.51 148.648,-6.704 152.878,-6.704ZM152.758,-18.781C154.514,-18.781 155.791,-17.664 156.03,-15.429L149.433,-15.429C149.686,-17.597 151.016,-18.781 152.758,-18.781Z" style="fill-rule:nonzero;"/>
        <path d="M170.847,-6.983L174.159,-6.983L174.159,-21.082L170.847,-21.082L170.847,-15.522L164.915,-15.522L164.915,-21.082L161.603,-21.082L161.603,-6.983L164.915,-6.983L164.915,-12.955L170.847,-12.955L170.847,-6.983Z" style="fill-rule:nonzero;"/>
        <path d="M182.471,-6.704C186.063,-6.704 188.417,-8.446 188.417,-11.093L188.417,-11.12C188.417,-12.782 187.393,-13.899 185.491,-14.272L185.491,-14.378C187.06,-14.724 188.031,-15.895 188.031,-17.398L188.031,-17.424C188.031,-19.871 185.983,-21.374 182.604,-21.374C179.253,-21.374 177.138,-19.832 176.792,-17.145L176.779,-17.052L179.904,-17.052L179.918,-17.145C180.131,-18.196 181.088,-18.807 182.538,-18.807C183.961,-18.807 184.799,-18.156 184.799,-17.038L184.799,-17.012C184.799,-15.855 184.001,-15.256 182.405,-15.256L180.45,-15.256L180.45,-13.022L182.432,-13.022C184.24,-13.022 185.132,-12.423 185.132,-11.186L185.132,-11.16C185.132,-9.989 184.107,-9.271 182.458,-9.271C180.929,-9.271 179.944,-9.843 179.638,-10.947L179.599,-11.08L176.406,-11.08L176.42,-10.973C176.712,-8.313 179,-6.704 182.471,-6.704Z" style="fill-rule:nonzero;"/>
        <path d="M190.864,-6.983L194.109,-6.983L200.188,-16.453L200.321,-16.453L200.321,-6.983L203.593,-6.983L203.593,-21.082L200.347,-21.082L194.269,-11.678L194.136,-11.678L194.136,-21.082L190.864,-21.082L190.864,-6.983Z" style="fill-rule:nonzero;"/>
        <path d="M214.685,-6.983L217.944,-6.983L217.944,-21.082L211.866,-21.082C208.514,-21.082 206.346,-19.233 206.346,-16.28L206.346,-16.254C206.346,-14.272 207.53,-12.822 209.485,-12.224L205.694,-6.983L209.405,-6.983L212.703,-11.705L214.685,-11.705L214.685,-6.983ZM212.118,-14.139C210.602,-14.139 209.671,-15.03 209.671,-16.267L209.671,-16.294C209.671,-17.69 210.602,-18.541 212.118,-18.541L214.685,-18.541L214.685,-14.139L212.118,-14.139Z" style="fill-rule:nonzero;"/>
    </g>
</svg>
