<svg width="188" height="59" viewBox="0 0 188 59" fill="none" xmlns="http://www.w3.org/2000/svg">
<g clip-path="url(#clip0_364_1180)">
<path fill-rule="evenodd" clip-rule="evenodd" d="M45.9998 1L45.9998 40.0411L45.9998 43.9866C46.0064 44.6303 45.881 45.2689 45.6306 45.8655C45.3802 46.462 45.01 47.0047 44.5413 47.4621C44.0725 47.9196 43.5146 48.2827 42.8997 48.5305C42.2849 48.7784 41.6252 48.9059 40.959 48.9059H36.0335C30.6326 48.9059 27.1834 50.4644 22.8411 54.8619L19.8022 58V48.9059H6.041C5.37478 48.9059 4.71516 48.7784 4.10028 48.5305C3.4854 48.2827 2.92745 47.9196 2.45871 47.4621C1.98997 47.0047 1.61973 46.462 1.36939 45.8655C1.11905 45.2689 0.99359 44.6303 1.00025 43.9866V1H45.9998ZM42.8421 8.80822L42.8421 4.23547H4.31275V43.9866C4.3118 44.2064 4.3558 44.4244 4.44222 44.6278C4.52866 44.8311 4.65581 45.0161 4.81639 45.1719C4.97696 45.3277 5.16781 45.4513 5.37796 45.5357C5.58811 45.62 5.81344 45.6635 6.041 45.6635H22.6035V51.3482C27.1834 46.4358 31.288 45.6635 36.0479 45.6635H40.9877C41.4449 45.6598 41.8819 45.4812 42.2031 45.167C42.5244 44.8527 42.7036 44.4283 42.7016 43.9866L42.8998 40.0411H45.9998L45.9998 8.80822H42.8421Z" fill="#CC0029"/>
<path d="M26.5185 28L24.8587 23.7347H19.3968L17.7563 28H16L21.3847 14.1619H22.948L28.3134 28H26.5185ZM22.7936 18.0219C22.755 17.919 22.6907 17.7324 22.6006 17.4622C22.5105 17.192 22.4205 16.9154 22.3304 16.6323C22.2532 16.3364 22.1889 16.1112 22.1374 15.9568C22.0731 16.2141 22.0023 16.4779 21.9251 16.7481C21.8608 17.0054 21.79 17.2435 21.7128 17.4622C21.6485 17.6809 21.5906 17.8675 21.5391 18.0219L19.9758 22.1907H24.3376L22.7936 18.0219ZM30.0248 14.2198H31.646V21.7854C31.646 22.1071 31.6395 22.4609 31.6267 22.8469C31.6267 23.22 31.6202 23.5932 31.6074 23.9663C31.5945 24.3394 31.5752 24.674 31.5495 24.9699C31.5366 25.253 31.5237 25.4717 31.5109 25.6261H31.5881L39.173 14.2198H41.103V28H39.4818V20.5116C39.4818 20.1642 39.4882 19.7911 39.5011 19.3922C39.5139 18.9805 39.5268 18.588 39.5397 18.2149C39.5654 17.8289 39.5847 17.4879 39.5976 17.192C39.6104 16.8961 39.6233 16.6773 39.6362 16.5358H39.559L31.9548 28H30.0248V14.2198ZM50.5325 15.5515C49.7991 15.5515 49.1365 15.6802 48.5446 15.9375C47.9528 16.182 47.451 16.5487 47.0392 17.0376C46.6275 17.5137 46.3123 18.0991 46.0935 18.7939C45.8748 19.4758 45.7654 20.2478 45.7654 21.1099C45.7654 22.2422 45.9391 23.2265 46.2865 24.0628C46.6468 24.8991 47.1743 25.5425 47.8691 25.9928C48.5768 26.4431 49.4582 26.6683 50.5132 26.6683C51.118 26.6683 51.6905 26.6168 52.2309 26.5139C52.7713 26.411 53.2989 26.2823 53.8135 26.1279V27.6333C53.2989 27.8263 52.7649 27.9678 52.2116 28.0579C51.6712 28.148 51.0215 28.193 50.2623 28.193C48.8599 28.193 47.689 27.9035 46.7497 27.3245C45.8105 26.7455 45.1028 25.922 44.6267 24.8541C44.1635 23.7862 43.9319 22.5317 43.9319 21.0906C43.9319 20.0484 44.0735 19.0963 44.3565 18.2342C44.6525 17.3721 45.0771 16.6259 45.6303 15.9954C46.1965 15.3649 46.8913 14.8824 47.7147 14.5479C48.5382 14.2005 49.4839 14.0268 50.5518 14.0268C51.2595 14.0268 51.9414 14.0976 52.5976 14.2391C53.2538 14.3806 53.8393 14.5801 54.3539 14.8374L53.6591 16.3042C53.2345 16.1112 52.7585 15.9375 52.2309 15.7831C51.7163 15.6287 51.1501 15.5515 50.5325 15.5515ZM67.792 28L63.2565 15.9182H63.1793C63.205 16.1755 63.2243 16.5036 63.2372 16.9025C63.2629 17.3014 63.2822 17.7388 63.2951 18.2149C63.308 18.6781 63.3144 19.1542 63.3144 19.6431V28H61.7125V14.2198H64.2794L68.5254 25.5103H68.6026L72.9258 14.2198H75.4734V28H73.7557V19.5273C73.7557 19.077 73.7621 18.6331 73.775 18.1956C73.7879 17.7453 73.8072 17.3271 73.8329 16.9411C73.8586 16.5422 73.8779 16.2077 73.8908 15.9375H73.8136L69.2202 28H67.792ZM87.7912 22.8083C87.7912 23.6704 87.6754 24.4359 87.4438 25.105C87.225 25.7612 86.9034 26.3209 86.4788 26.7841C86.067 27.2473 85.5588 27.6011 84.9541 27.8456C84.3622 28.0772 83.6996 28.193 82.9662 28.193C82.2842 28.193 81.6538 28.0772 81.0748 27.8456C80.4958 27.6011 79.994 27.2473 79.5694 26.7841C79.1448 26.3209 78.8102 25.7612 78.5658 25.105C78.3342 24.4359 78.2184 23.6704 78.2184 22.8083C78.2184 21.6632 78.4114 20.6982 78.7974 19.9133C79.1834 19.1156 79.7366 18.5108 80.4572 18.0991C81.1777 17.6745 82.0333 17.4622 83.0241 17.4622C83.9633 17.4622 84.7868 17.6745 85.4945 18.0991C86.215 18.5108 86.7747 19.1156 87.1736 19.9133C87.5853 20.6982 87.7912 21.6632 87.7912 22.8083ZM79.9747 22.8083C79.9747 23.6189 80.0776 24.3266 80.2835 24.9313C80.5022 25.5232 80.8367 25.9799 81.2871 26.3016C81.7374 26.6233 82.31 26.7841 83.0048 26.7841C83.6996 26.7841 84.2721 26.6233 84.7225 26.3016C85.1728 25.9799 85.5009 25.5232 85.7068 24.9313C85.9255 24.3266 86.0349 23.6189 86.0349 22.8083C86.0349 21.9848 85.9255 21.2836 85.7068 20.7046C85.488 20.1256 85.1535 19.6817 84.7032 19.3729C84.2657 19.0512 83.6931 18.8904 82.9855 18.8904C81.9304 18.8904 81.1648 19.2378 80.6888 19.9326C80.2127 20.6274 79.9747 21.586 79.9747 22.8083ZM94.4394 28.193C93.5259 28.193 92.7089 28.0064 91.9883 27.6333C91.2807 27.2602 90.721 26.6812 90.3092 25.8963C89.9104 25.1114 89.7109 24.1078 89.7109 22.8855C89.7109 21.6117 89.9232 20.5759 90.3478 19.7782C90.7724 18.9805 91.345 18.395 92.0655 18.0219C92.7989 17.6488 93.6288 17.4622 94.5552 17.4622C95.0828 17.4622 95.591 17.5201 96.0799 17.6359C96.5689 17.7388 96.9677 17.8675 97.2765 18.0219L96.7554 19.4308C96.4466 19.315 96.0864 19.2056 95.6746 19.1027C95.2629 18.9998 94.8769 18.9483 94.5166 18.9483C93.8218 18.9483 93.2493 19.0963 92.7989 19.3922C92.3486 19.6881 92.0141 20.1256 91.7953 20.7046C91.5766 21.2836 91.4672 22.0041 91.4672 22.8662C91.4672 23.6897 91.5766 24.3909 91.7953 24.9699C92.0141 25.5489 92.3422 25.9864 92.7796 26.2823C93.2171 26.5782 93.7639 26.7262 94.4201 26.7262C94.9863 26.7262 95.4816 26.6683 95.9062 26.5525C96.3437 26.4367 96.7426 26.2952 97.1028 26.1279V27.6333C96.7554 27.8134 96.3694 27.9485 95.9448 28.0386C95.5331 28.1415 95.0313 28.193 94.4394 28.193ZM107.244 28H105.527V19.0641H102.477C102.349 20.6982 102.188 22.0942 101.995 23.2522C101.802 24.3973 101.557 25.3302 101.261 26.0507C100.965 26.7712 100.612 27.2988 100.2 27.6333C99.7881 27.9678 99.3056 28.1351 98.7524 28.1351C98.5851 28.1351 98.4178 28.1222 98.2506 28.0965C98.0962 28.0836 97.9675 28.0515 97.8646 28V26.7262C97.9418 26.7519 98.0254 26.7712 98.1155 26.7841C98.2055 26.797 98.2956 26.8034 98.3857 26.8034C98.6687 26.8034 98.9261 26.6876 99.1577 26.456C99.3893 26.2244 99.5951 25.8706 99.7753 25.3945C99.9683 24.9184 100.142 24.3201 100.296 23.5996C100.451 22.8662 100.586 22.0041 100.702 21.0134C100.817 20.0227 100.92 18.9033 101.01 17.6552H107.244V28ZM111.937 23.9663C111.937 24.0821 111.93 24.2494 111.917 24.4681C111.917 24.674 111.911 24.8991 111.898 25.1436C111.885 25.3752 111.872 25.6004 111.859 25.8191C111.847 26.025 111.834 26.1922 111.821 26.3209L117.36 17.6552H119.444V28H117.862V21.9012C117.862 21.6953 117.862 21.4251 117.862 21.0906C117.875 20.7561 117.888 20.428 117.9 20.1063C117.913 19.7718 117.926 19.5209 117.939 19.3536L112.438 28H110.335V17.6552H111.937V23.9663ZM132.753 31.5898H131.093V28H122.544V17.6552H124.242V26.5718H129.588V17.6552H131.286V26.5911H132.753V31.5898ZM138.54 17.4622C139.428 17.4622 140.187 17.6552 140.817 18.0412C141.461 18.4272 141.95 18.974 142.284 19.6817C142.632 20.3765 142.805 21.1935 142.805 22.1328V23.1557H135.722C135.748 24.3266 136.044 25.2208 136.61 25.8384C137.189 26.4431 137.993 26.7455 139.023 26.7455C139.679 26.7455 140.258 26.6876 140.76 26.5718C141.274 26.4431 141.802 26.263 142.342 26.0314V27.5175C141.815 27.7491 141.294 27.9164 140.779 28.0193C140.264 28.1351 139.653 28.193 138.945 28.193C137.968 28.193 137.099 27.9936 136.34 27.5947C135.594 27.1958 135.008 26.604 134.584 25.8191C134.172 25.0214 133.966 24.0499 133.966 22.9048C133.966 21.7725 134.153 20.8011 134.526 19.9905C134.912 19.1799 135.446 18.5559 136.128 18.1184C136.822 17.6809 137.627 17.4622 138.54 17.4622ZM138.521 18.8518C137.71 18.8518 137.067 19.1156 136.591 19.6431C136.128 20.1578 135.851 20.8783 135.761 21.8047H141.03C141.03 21.2128 140.94 20.6982 140.76 20.2607C140.579 19.8232 140.303 19.4823 139.93 19.2378C139.569 18.9805 139.1 18.8518 138.521 18.8518ZM146.944 17.6552V21.9591H152.561V17.6552H154.259V28H152.561V23.3873H146.944V28H145.246V17.6552H146.944ZM160.063 17.4622C160.848 17.4622 161.53 17.5716 162.109 17.7903C162.688 17.9962 163.138 18.305 163.46 18.7167C163.781 19.1156 163.942 19.6045 163.942 20.1835C163.942 20.814 163.768 21.3158 163.421 21.6889C163.074 22.0492 162.598 22.3129 161.993 22.4802V22.5574C162.405 22.6732 162.784 22.834 163.132 23.0399C163.479 23.2458 163.756 23.516 163.961 23.8505C164.18 24.185 164.29 24.6161 164.29 25.1436C164.29 25.7097 164.129 26.2244 163.807 26.6876C163.498 27.1508 163.016 27.5175 162.36 27.7877C161.716 28.0579 160.886 28.193 159.87 28.193C159.381 28.193 158.911 28.1673 158.461 28.1158C158.024 28.0643 157.625 27.9871 157.264 27.8842C156.917 27.7813 156.608 27.659 156.338 27.5175V25.9928C156.775 26.1987 157.29 26.3852 157.882 26.5525C158.487 26.7198 159.143 26.8034 159.851 26.8034C160.365 26.8034 160.828 26.7455 161.24 26.6297C161.665 26.5139 161.999 26.3338 162.244 26.0893C162.488 25.832 162.61 25.4846 162.61 25.0471C162.61 24.6482 162.501 24.3266 162.282 24.0821C162.064 23.8248 161.736 23.6318 161.298 23.5031C160.873 23.3744 160.327 23.3101 159.658 23.3101H158.268V21.9205H159.387C160.275 21.9205 160.983 21.8047 161.51 21.5731C162.051 21.3286 162.321 20.9169 162.321 20.3379C162.321 19.849 162.115 19.4823 161.703 19.2378C161.305 18.9933 160.726 18.8711 159.966 18.8711C159.4 18.8711 158.898 18.929 158.461 19.0448C158.036 19.1477 157.567 19.3086 157.052 19.5273L156.454 18.1763C157.007 17.9318 157.586 17.7517 158.191 17.6359C158.796 17.5201 159.42 17.4622 160.063 17.4622ZM168.212 23.9663C168.212 24.0821 168.206 24.2494 168.193 24.4681C168.193 24.674 168.186 24.8991 168.173 25.1436C168.161 25.3752 168.148 25.6004 168.135 25.8191C168.122 26.025 168.109 26.1922 168.096 26.3209L173.635 17.6552H175.72V28H174.137V21.9012C174.137 21.6953 174.137 21.4251 174.137 21.0906C174.15 20.7561 174.163 20.428 174.176 20.1063C174.189 19.7718 174.201 19.5209 174.214 19.3536L168.714 28H166.61V17.6552H168.212V23.9663ZM179.456 28H177.487L180.44 23.6575C180.041 23.5546 179.655 23.3937 179.282 23.175C178.909 22.9434 178.607 22.6282 178.375 22.2293C178.143 21.8176 178.028 21.3093 178.028 20.7046C178.028 19.7139 178.362 18.9612 179.031 18.4465C179.7 17.919 180.588 17.6552 181.695 17.6552H186.327V28H184.628V23.8891H182.119L179.456 28ZM179.668 20.7239C179.668 21.3158 179.887 21.7597 180.324 22.0556C180.775 22.3387 181.399 22.4802 182.196 22.4802H184.628V19.0641H181.868C181.083 19.0641 180.517 19.2185 180.17 19.5273C179.835 19.8361 179.668 20.235 179.668 20.7239Z" fill="#111111"/>
<path d="M19.5296 32.4046V37.3731H20.2428V39.4733H19.5688V38H15.721V39.4733H15.047V37.3731H15.478C15.6661 37.0491 15.8438 36.686 16.0109 36.2838C16.1833 35.8815 16.3349 35.4609 16.4655 35.022C16.5961 34.578 16.7032 34.1339 16.7868 33.6898C16.8704 33.2457 16.9226 32.8173 16.9435 32.4046H19.5296ZM17.5626 33.0393C17.5417 33.3424 17.4895 33.6846 17.4059 34.066C17.3275 34.4473 17.2256 34.8392 17.1002 35.2415C16.9801 35.6385 16.8442 36.0225 16.6927 36.3935C16.5464 36.7644 16.3897 37.0909 16.2225 37.3731H18.8322V33.0393H17.5626ZM22.55 33.7211C22.9104 33.7211 23.2187 33.7995 23.4747 33.9562C23.7359 34.113 23.9344 34.335 24.0703 34.6224C24.2113 34.9045 24.2819 35.2362 24.2819 35.6176V36.033H21.4058C21.4162 36.5084 21.5364 36.8715 21.7663 37.1223C22.0014 37.3678 22.3279 37.4906 22.7459 37.4906C23.0123 37.4906 23.2474 37.4671 23.4512 37.4201C23.6602 37.3678 23.8744 37.2947 24.0938 37.2007V37.8041C23.8796 37.8981 23.668 37.966 23.459 38.0078C23.25 38.0549 23.0019 38.0784 22.7145 38.0784C22.3175 38.0784 21.9648 37.9974 21.6566 37.8354C21.3536 37.6735 21.1158 37.4331 20.9434 37.1144C20.7762 36.7905 20.6927 36.3961 20.6927 35.9311C20.6927 35.4713 20.7684 35.0769 20.9199 34.7478C21.0767 34.4186 21.2935 34.1652 21.5704 33.9876C21.8525 33.81 22.179 33.7211 22.55 33.7211ZM22.5421 34.2854C22.213 34.2854 21.9518 34.3925 21.7584 34.6067C21.5704 34.8157 21.458 35.1082 21.4215 35.4844H23.5609C23.5609 35.2441 23.5243 35.0351 23.4512 34.8575C23.378 34.6798 23.2657 34.5414 23.1142 34.4421C22.9679 34.3376 22.7772 34.2854 22.5421 34.2854ZM28.7445 33.7995V38H28.0549V34.3873H25.8841V38H25.1945V33.7995H28.7445ZM31.5189 33.729C32.0309 33.729 32.4097 33.8413 32.6552 34.066C32.9008 34.2906 33.0236 34.6485 33.0236 35.1396V38H32.522L32.3888 37.4044H32.3574C32.2373 37.5559 32.1119 37.6839 31.9813 37.7884C31.8559 37.8877 31.7096 37.9608 31.5424 38.0078C31.3805 38.0549 31.1819 38.0784 30.9468 38.0784C30.6961 38.0784 30.4688 38.034 30.265 37.9451C30.0665 37.8563 29.9098 37.7205 29.7948 37.5376C29.6799 37.3496 29.6224 37.1144 29.6224 36.8323C29.6224 36.4144 29.787 36.0931 30.1161 35.8684C30.4453 35.6385 30.9521 35.5131 31.6365 35.4922L32.3496 35.4687V35.218C32.3496 34.8679 32.2739 34.625 32.1223 34.4891C31.9708 34.3533 31.7566 34.2854 31.4797 34.2854C31.2603 34.2854 31.0513 34.3193 30.8528 34.3873C30.6543 34.45 30.4688 34.5231 30.2964 34.6067L30.0848 34.0895C30.2677 33.9902 30.4845 33.9066 30.7352 33.8387C30.986 33.7656 31.2472 33.729 31.5189 33.729ZM31.7227 35.9703C31.2002 35.9912 30.8371 36.0748 30.6334 36.2211C30.4348 36.3673 30.3356 36.5737 30.3356 36.8402C30.3356 37.0753 30.4061 37.2477 30.5472 37.3574C30.6934 37.4671 30.8789 37.522 31.1036 37.522C31.4588 37.522 31.754 37.4253 31.9891 37.232C32.2242 37.0335 32.3418 36.7304 32.3418 36.3229V35.9468L31.7227 35.9703ZM36.1626 33.7211C36.6798 33.7211 37.0951 33.9014 37.4086 34.2619C37.7273 34.6224 37.8866 35.1657 37.8866 35.8919C37.8866 36.3673 37.8135 36.7696 37.6672 37.0988C37.5261 37.4227 37.325 37.6682 37.0638 37.8354C36.8078 37.9974 36.5048 38.0784 36.1547 38.0784C35.9405 38.0784 35.7498 38.0496 35.5826 37.9922C35.4154 37.9347 35.2718 37.8616 35.1516 37.7727C35.0367 37.6787 34.9374 37.5768 34.8538 37.4671H34.8068C34.8172 37.5559 34.8277 37.6682 34.8381 37.8041C34.8486 37.9399 34.8538 38.0575 34.8538 38.1567V39.8808H34.1642V33.7995H34.7284L34.8225 34.3716H34.8538C34.9374 34.2514 35.0367 34.1417 35.1516 34.0424C35.2718 33.9432 35.4128 33.8648 35.5748 33.8073C35.742 33.7499 35.9379 33.7211 36.1626 33.7211ZM36.0372 34.3011C35.755 34.3011 35.5278 34.3559 35.3554 34.4656C35.183 34.5701 35.0576 34.7295 34.9792 34.9437C34.9008 35.1579 34.859 35.4296 34.8538 35.7587V35.8919C34.8538 36.2367 34.8904 36.5293 34.9635 36.7696C35.0367 37.01 35.1594 37.1928 35.3319 37.3182C35.5095 37.4436 35.7498 37.5063 36.0528 37.5063C36.3088 37.5063 36.5178 37.4358 36.6798 37.2947C36.847 37.1536 36.9697 36.9629 37.0481 36.7226C37.1317 36.4771 37.1735 36.1976 37.1735 35.8841C37.1735 35.4034 37.0795 35.0194 36.8914 34.7321C36.7085 34.4447 36.4238 34.3011 36.0372 34.3011ZM41.6519 34.3794H40.2805V38H39.5987V34.3794H38.243V33.7995H41.6519V34.3794ZM43.9135 33.729C44.4255 33.729 44.8043 33.8413 45.0498 34.066C45.2954 34.2906 45.4182 34.6485 45.4182 35.1396V38H44.9166L44.7834 37.4044H44.752C44.6319 37.5559 44.5065 37.6839 44.3759 37.7884C44.2505 37.8877 44.1042 37.9608 43.937 38.0078C43.7751 38.0549 43.5765 38.0784 43.3414 38.0784C43.0907 38.0784 42.8634 38.034 42.6596 37.9451C42.4611 37.8563 42.3044 37.7205 42.1894 37.5376C42.0745 37.3496 42.017 37.1144 42.017 36.8323C42.017 36.4144 42.1816 36.0931 42.5107 35.8684C42.8399 35.6385 43.3467 35.5131 44.0311 35.4922L44.7442 35.4687V35.218C44.7442 34.8679 44.6684 34.625 44.5169 34.4891C44.3654 34.3533 44.1512 34.2854 43.8743 34.2854C43.6549 34.2854 43.4459 34.3193 43.2474 34.3873C43.0489 34.45 42.8634 34.5231 42.691 34.6067L42.4794 34.0895C42.6622 33.9902 42.8791 33.9066 43.1298 33.8387C43.3806 33.7656 43.6418 33.729 43.9135 33.729ZM44.1173 35.9703C43.5948 35.9912 43.2317 36.0748 43.028 36.2211C42.8294 36.3673 42.7302 36.5737 42.7302 36.8402C42.7302 37.0753 42.8007 37.2477 42.9418 37.3574C43.088 37.4671 43.2735 37.522 43.4982 37.522C43.8534 37.522 44.1486 37.4253 44.3837 37.232C44.6188 37.0335 44.7364 36.7304 44.7364 36.3229V35.9468L44.1173 35.9703ZM51.0649 33.7995V38H50.4458V35.3198C50.4458 35.2101 50.4484 35.0952 50.4536 34.975C50.4641 34.8549 50.4745 34.7373 50.485 34.6224H50.4615L49.09 38H48.5101L47.1779 34.6224H47.1544C47.1648 34.7373 47.17 34.8549 47.17 34.975C47.1753 35.0952 47.1779 35.218 47.1779 35.3433V38H46.5588V33.7995H47.4757L48.8001 37.1771L50.148 33.7995H51.0649ZM53.8712 33.7211C54.2317 33.7211 54.5399 33.7995 54.7959 33.9562C55.0571 34.113 55.2557 34.335 55.3915 34.6224C55.5326 34.9045 55.6031 35.2362 55.6031 35.6176V36.033H52.727C52.7375 36.5084 52.8576 36.8715 53.0875 37.1223C53.3226 37.3678 53.6491 37.4906 54.0671 37.4906C54.3335 37.4906 54.5687 37.4671 54.7724 37.4201C54.9814 37.3678 55.1956 37.2947 55.415 37.2007V37.8041C55.2008 37.8981 54.9892 37.966 54.7802 38.0078C54.5713 38.0549 54.3231 38.0784 54.0358 38.0784C53.6387 38.0784 53.286 37.9974 52.9778 37.8354C52.6748 37.6735 52.4371 37.4331 52.2647 37.1144C52.0975 36.7905 52.0139 36.3961 52.0139 35.9311C52.0139 35.4713 52.0896 35.0769 52.2411 34.7478C52.3979 34.4186 52.6147 34.1652 52.8916 33.9876C53.1737 33.81 53.5002 33.7211 53.8712 33.7211ZM53.8633 34.2854C53.5342 34.2854 53.273 34.3925 53.0797 34.6067C52.8916 34.8157 52.7793 35.1082 52.7427 35.4844H54.8821C54.8821 35.2441 54.8455 35.0351 54.7724 34.8575C54.6993 34.6798 54.5869 34.5414 54.4354 34.4421C54.2891 34.3376 54.0984 34.2854 53.8633 34.2854ZM57.2053 33.7995V35.5471H59.4858V33.7995H60.1755V38H59.4858V36.127H57.2053V38H56.5157V33.7995H57.2053ZM64.2484 34.3794H62.8769V38H62.1951V34.3794H60.8394V33.7995H64.2484V34.3794ZM69.8737 34.3794H68.5022V38H67.8205V34.3794H66.4647V33.7995H69.8737V34.3794ZM74.1198 35.8919C74.1198 36.242 74.0728 36.5528 73.9787 36.8245C73.8899 37.0909 73.7593 37.3182 73.5869 37.5063C73.4197 37.6944 73.2133 37.838 72.9678 37.9373C72.7274 38.0313 72.4584 38.0784 72.1606 38.0784C71.8837 38.0784 71.6277 38.0313 71.3926 37.9373C71.1575 37.838 70.9537 37.6944 70.7813 37.5063C70.6089 37.3182 70.4731 37.0909 70.3738 36.8245C70.2798 36.5528 70.2328 36.242 70.2328 35.8919C70.2328 35.4269 70.3111 35.0351 70.4679 34.7164C70.6246 34.3925 70.8492 34.1469 71.1418 33.9798C71.4344 33.8073 71.7818 33.7211 72.1841 33.7211C72.5655 33.7211 72.8999 33.8073 73.1872 33.9798C73.4798 34.1469 73.707 34.3925 73.869 34.7164C74.0362 35.0351 74.1198 35.4269 74.1198 35.8919ZM70.9459 35.8919C70.9459 36.2211 70.9877 36.5084 71.0713 36.754C71.1601 36.9943 71.2959 37.1798 71.4788 37.3104C71.6617 37.441 71.8941 37.5063 72.1763 37.5063C72.4584 37.5063 72.6909 37.441 72.8737 37.3104C73.0566 37.1798 73.1898 36.9943 73.2734 36.754C73.3622 36.5084 73.4066 36.2211 73.4066 35.8919C73.4066 35.5576 73.3622 35.2728 73.2734 35.0377C73.1846 34.8026 73.0488 34.6224 72.8659 34.497C72.6883 34.3664 72.4558 34.3011 72.1684 34.3011C71.74 34.3011 71.4292 34.4421 71.2359 34.7242C71.0426 35.0064 70.9459 35.3956 70.9459 35.8919ZM77.0544 33.7211C77.5716 33.7211 77.987 33.9014 78.3004 34.2619C78.6191 34.6224 78.7785 35.1657 78.7785 35.8919C78.7785 36.3673 78.7053 36.7696 78.559 37.0988C78.418 37.4227 78.2168 37.6682 77.9556 37.8354C77.6996 37.9974 77.3966 38.0784 77.0465 38.0784C76.8323 38.0784 76.6417 38.0496 76.4745 37.9922C76.3073 37.9347 76.1636 37.8616 76.0434 37.7727C75.9285 37.6787 75.8292 37.5768 75.7457 37.4671H75.6986C75.7091 37.5559 75.7195 37.6682 75.73 37.8041C75.7404 37.9399 75.7457 38.0575 75.7457 38.1567V39.8808H75.056V33.7995H75.6203L75.7143 34.3716H75.7457C75.8292 34.2514 75.9285 34.1417 76.0434 34.0424C76.1636 33.9432 76.3047 33.8648 76.4666 33.8073C76.6338 33.7499 76.8297 33.7211 77.0544 33.7211ZM76.929 34.3011C76.6469 34.3011 76.4196 34.3559 76.2472 34.4656C76.0748 34.5701 75.9494 34.7295 75.871 34.9437C75.7927 35.1579 75.7509 35.4296 75.7457 35.7587V35.8919C75.7457 36.2367 75.7822 36.5293 75.8554 36.7696C75.9285 37.01 76.0513 37.1928 76.2237 37.3182C76.4013 37.4436 76.6417 37.5063 76.9447 37.5063C77.2007 37.5063 77.4097 37.4358 77.5716 37.2947C77.7388 37.1536 77.8616 36.9629 77.9399 36.7226C78.0235 36.4771 78.0653 36.1976 78.0653 35.8841C78.0653 35.4034 77.9713 35.0194 77.7832 34.7321C77.6003 34.4447 77.3156 34.3011 76.929 34.3011ZM82.2833 33.7995V34.3794H80.4103V38H79.7207V33.7995H82.2833ZM86.5297 35.8919C86.5297 36.242 86.4827 36.5528 86.3886 36.8245C86.2998 37.0909 86.1692 37.3182 85.9968 37.5063C85.8296 37.6944 85.6232 37.838 85.3777 37.9373C85.1373 38.0313 84.8683 38.0784 84.5705 38.0784C84.2936 38.0784 84.0376 38.0313 83.8025 37.9373C83.5674 37.838 83.3636 37.6944 83.1912 37.5063C83.0188 37.3182 82.883 37.0909 82.7837 36.8245C82.6897 36.5528 82.6427 36.242 82.6427 35.8919C82.6427 35.4269 82.721 35.0351 82.8778 34.7164C83.0345 34.3925 83.2591 34.1469 83.5517 33.9798C83.8443 33.8073 84.1917 33.7211 84.594 33.7211C84.9754 33.7211 85.3098 33.8073 85.5971 33.9798C85.8897 34.1469 86.1169 34.3925 86.2789 34.7164C86.4461 35.0351 86.5297 35.4269 86.5297 35.8919ZM83.3558 35.8919C83.3558 36.2211 83.3976 36.5084 83.4812 36.754C83.57 36.9943 83.7058 37.1798 83.8887 37.3104C84.0716 37.441 84.304 37.5063 84.5862 37.5063C84.8683 37.5063 85.1008 37.441 85.2836 37.3104C85.4665 37.1798 85.5997 36.9943 85.6833 36.754C85.7721 36.5084 85.8165 36.2211 85.8165 35.8919C85.8165 35.5576 85.7721 35.2728 85.6833 35.0377C85.5945 34.8026 85.4587 34.6224 85.2758 34.497C85.0982 34.3664 84.8657 34.3011 84.5783 34.3011C84.1499 34.3011 83.8391 34.4421 83.6458 34.7242C83.4524 35.0064 83.3558 35.3956 83.3558 35.8919ZM90.8436 34.8575C90.8436 35.1187 90.7652 35.3224 90.6085 35.4687C90.4517 35.615 90.2506 35.7143 90.005 35.7665V35.7979C90.2662 35.8344 90.4935 35.9285 90.6868 36.08C90.8801 36.2263 90.9768 36.4562 90.9768 36.7696C90.9768 36.9473 90.9428 37.1118 90.8749 37.2633C90.8122 37.4149 90.7129 37.5455 90.5771 37.6552C90.4413 37.7649 90.2662 37.8511 90.052 37.9138C89.8378 37.9713 89.5792 38 89.2762 38H87.4659V33.7995H89.2684C89.5662 33.7995 89.8326 33.8335 90.0677 33.9014C90.308 33.9641 90.4961 34.0738 90.632 34.2305C90.773 34.382 90.8436 34.591 90.8436 34.8575ZM90.2636 36.7696C90.2636 36.5293 90.1722 36.3569 89.9893 36.2524C89.8065 36.1479 89.5374 36.0957 89.1822 36.0957H88.1556V37.4436H89.1978C89.5427 37.4436 89.8065 37.394 89.9893 37.2947C90.1722 37.1902 90.2636 37.0152 90.2636 36.7696ZM90.1461 34.9437C90.1461 34.7451 90.0729 34.6015 89.9267 34.5127C89.7856 34.4186 89.5531 34.3716 89.2292 34.3716H88.1556V35.5236H89.1038C89.4434 35.5236 89.702 35.4766 89.8796 35.3825C90.0573 35.2885 90.1461 35.1422 90.1461 34.9437ZM95.0219 38H94.3244V34.3716H93.0862C93.034 35.0351 92.9687 35.602 92.8903 36.0722C92.8119 36.5371 92.7127 36.9159 92.5925 37.2085C92.4723 37.5011 92.3287 37.7153 92.1615 37.8511C91.9943 37.9869 91.7984 38.0549 91.5737 38.0549C91.5058 38.0549 91.4379 38.0496 91.37 38.0392C91.3073 38.034 91.255 38.0209 91.2132 38V37.4828C91.2446 37.4932 91.2785 37.5011 91.3151 37.5063C91.3517 37.5115 91.3882 37.5141 91.4248 37.5141C91.5398 37.5141 91.6442 37.4671 91.7383 37.3731C91.8323 37.279 91.9159 37.1353 91.9891 36.942C92.0674 36.7487 92.138 36.5058 92.2007 36.2132C92.2634 35.9154 92.3182 35.5654 92.3652 35.1631C92.4122 34.7608 92.454 34.3063 92.4906 33.7995H95.0219V38ZM96.8488 36.3621C96.8488 36.4091 96.8462 36.4771 96.841 36.5659C96.841 36.6495 96.8384 36.7409 96.8331 36.8402C96.8279 36.9342 96.8227 37.0256 96.8175 37.1144C96.8122 37.198 96.807 37.266 96.8018 37.3182L99.0509 33.7995H99.8973V38H99.2547V35.5236C99.2547 35.44 99.2547 35.3303 99.2547 35.1944C99.2599 35.0586 99.2651 34.9254 99.2704 34.7948C99.2756 34.6589 99.2808 34.5571 99.286 34.4891L97.0526 38H96.1984V33.7995H96.8488V36.3621ZM103.783 36.3621C103.783 36.4091 103.78 36.4771 103.775 36.5659C103.775 36.6495 103.772 36.7409 103.767 36.8402C103.762 36.9342 103.757 37.0256 103.751 37.1144C103.746 37.198 103.741 37.266 103.736 37.3182L105.985 33.7995H106.831V38H106.189V35.5236C106.189 35.44 106.189 35.3303 106.189 35.1944C106.194 35.0586 106.199 34.9254 106.204 34.7948C106.21 34.6589 106.215 34.5571 106.22 34.4891L103.987 38H103.132V33.7995H103.783V36.3621ZM109.408 33.7995H110.145L111.054 36.1897C111.106 36.3308 111.153 36.4666 111.195 36.5972C111.242 36.7278 111.284 36.8558 111.32 36.9812C111.357 37.1014 111.386 37.2189 111.406 37.3339H111.438C111.469 37.2033 111.519 37.0335 111.587 36.8245C111.655 36.6103 111.725 36.3961 111.798 36.1819L112.652 33.7995H113.397L111.587 38.5799C111.487 38.8411 111.37 39.0684 111.234 39.2617C111.103 39.4602 110.941 39.6118 110.748 39.7162C110.56 39.826 110.33 39.8808 110.058 39.8808C109.933 39.8808 109.823 39.873 109.729 39.8573C109.635 39.8469 109.554 39.8338 109.486 39.8181V39.2696C109.544 39.28 109.612 39.2904 109.69 39.3009C109.774 39.3113 109.86 39.3166 109.949 39.3166C110.111 39.3166 110.249 39.2852 110.364 39.2225C110.484 39.1651 110.586 39.0789 110.67 38.9639C110.753 38.8542 110.824 38.7236 110.881 38.5721L111.101 38.0157L109.408 33.7995ZM115.589 38.0784C115.218 38.0784 114.887 38.0026 114.594 37.8511C114.307 37.6996 114.08 37.4645 113.912 37.1458C113.75 36.8271 113.669 36.4196 113.669 35.9233C113.669 35.406 113.756 34.9855 113.928 34.6616C114.1 34.3376 114.333 34.0999 114.625 33.9484C114.923 33.7969 115.26 33.7211 115.636 33.7211C115.851 33.7211 116.057 33.7447 116.256 33.7917C116.454 33.8335 116.616 33.8857 116.741 33.9484L116.53 34.5205C116.404 34.4735 116.258 34.4291 116.091 34.3873C115.924 34.3455 115.767 34.3246 115.621 34.3246C115.339 34.3246 115.106 34.3847 114.923 34.5048C114.74 34.625 114.605 34.8026 114.516 35.0377C114.427 35.2728 114.383 35.5654 114.383 35.9154C114.383 36.2498 114.427 36.5345 114.516 36.7696C114.605 37.0047 114.738 37.1824 114.915 37.3025C115.093 37.4227 115.315 37.4828 115.582 37.4828C115.811 37.4828 116.013 37.4593 116.185 37.4122C116.363 37.3652 116.525 37.3078 116.671 37.2398V37.8511C116.53 37.9242 116.373 37.9791 116.201 38.0157C116.033 38.0575 115.83 38.0784 115.589 38.0784ZM120.71 38H120.013V34.3716H118.775C118.723 35.0351 118.657 35.602 118.579 36.0722C118.5 36.5371 118.401 36.9159 118.281 37.2085C118.161 37.5011 118.017 37.7153 117.85 37.8511C117.683 37.9869 117.487 38.0549 117.262 38.0549C117.194 38.0549 117.126 38.0496 117.059 38.0392C116.996 38.034 116.944 38.0209 116.902 38V37.4828C116.933 37.4932 116.967 37.5011 117.004 37.5063C117.04 37.5115 117.077 37.5141 117.113 37.5141C117.228 37.5141 117.333 37.4671 117.427 37.3731C117.521 37.279 117.604 37.1353 117.678 36.942C117.756 36.7487 117.827 36.5058 117.889 36.2132C117.952 35.9154 118.007 35.5654 118.054 35.1631C118.101 34.7608 118.143 34.3063 118.179 33.7995H120.71V38ZM121.229 33.7995H121.965L122.874 36.1897C122.927 36.3308 122.974 36.4666 123.015 36.5972C123.062 36.7278 123.104 36.8558 123.141 36.9812C123.177 37.1014 123.206 37.2189 123.227 37.3339H123.258C123.29 37.2033 123.339 37.0335 123.407 36.8245C123.475 36.6103 123.546 36.3961 123.619 36.1819L124.473 33.7995H125.218L123.407 38.5799C123.308 38.8411 123.19 39.0684 123.055 39.2617C122.924 39.4602 122.762 39.6118 122.569 39.7162C122.381 39.826 122.151 39.8808 121.879 39.8808C121.754 39.8808 121.644 39.873 121.55 39.8573C121.456 39.8469 121.375 39.8338 121.307 39.8181V39.2696C121.364 39.28 121.432 39.2904 121.511 39.3009C121.594 39.3113 121.681 39.3166 121.769 39.3166C121.931 39.3166 122.07 39.2852 122.185 39.2225C122.305 39.1651 122.407 39.0789 122.49 38.9639C122.574 38.8542 122.644 38.7236 122.702 38.5721L122.921 38.0157L121.229 33.7995ZM128.288 33.7995V34.3794H126.415V38H125.725V33.7995H128.288ZM133.576 33.7995V34.3794H131.703V38H131.014V33.7995H133.576ZM137.823 35.8919C137.823 36.242 137.776 36.5528 137.682 36.8245C137.593 37.0909 137.462 37.3182 137.29 37.5063C137.123 37.6944 136.916 37.838 136.671 37.9373C136.43 38.0313 136.161 38.0784 135.863 38.0784C135.587 38.0784 135.331 38.0313 135.095 37.9373C134.86 37.838 134.657 37.6944 134.484 37.5063C134.312 37.3182 134.176 37.0909 134.077 36.8245C133.983 36.5528 133.936 36.242 133.936 35.8919C133.936 35.4269 134.014 35.0351 134.171 34.7164C134.327 34.3925 134.552 34.1469 134.845 33.9798C135.137 33.8073 135.485 33.7211 135.887 33.7211C136.268 33.7211 136.603 33.8073 136.89 33.9798C137.183 34.1469 137.41 34.3925 137.572 34.7164C137.739 35.0351 137.823 35.4269 137.823 35.8919ZM134.649 35.8919C134.649 36.2211 134.691 36.5084 134.774 36.754C134.863 36.9943 134.999 37.1798 135.182 37.3104C135.365 37.441 135.597 37.5063 135.879 37.5063C136.161 37.5063 136.394 37.441 136.577 37.3104C136.759 37.1798 136.893 36.9943 136.976 36.754C137.065 36.5084 137.109 36.2211 137.109 35.8919C137.109 35.5576 137.065 35.2728 136.976 35.0377C136.887 34.8026 136.752 34.6224 136.569 34.497C136.391 34.3664 136.159 34.3011 135.871 34.3011C135.443 34.3011 135.132 34.4421 134.939 34.7242C134.745 35.0064 134.649 35.3956 134.649 35.8919ZM140.757 33.7211C141.274 33.7211 141.69 33.9014 142.003 34.2619C142.322 34.6224 142.481 35.1657 142.481 35.8919C142.481 36.3673 142.408 36.7696 142.262 37.0988C142.121 37.4227 141.92 37.6682 141.658 37.8354C141.402 37.9974 141.099 38.0784 140.749 38.0784C140.535 38.0784 140.345 38.0496 140.177 37.9922C140.01 37.9347 139.866 37.8616 139.746 37.7727C139.631 37.6787 139.532 37.5768 139.449 37.4671H139.401C139.412 37.5559 139.422 37.6682 139.433 37.8041C139.443 37.9399 139.449 38.0575 139.449 38.1567V39.8808H138.759V33.7995H139.323L139.417 34.3716H139.449C139.532 34.2514 139.631 34.1417 139.746 34.0424C139.866 33.9432 140.008 33.8648 140.169 33.8073C140.337 33.7499 140.533 33.7211 140.757 33.7211ZM140.632 34.3011C140.35 34.3011 140.122 34.3559 139.95 34.4656C139.778 34.5701 139.652 34.7295 139.574 34.9437C139.496 35.1579 139.454 35.4296 139.449 35.7587V35.8919C139.449 36.2367 139.485 36.5293 139.558 36.7696C139.631 37.01 139.754 37.1928 139.927 37.3182C140.104 37.4436 140.345 37.5063 140.648 37.5063C140.904 37.5063 141.113 37.4358 141.274 37.2947C141.442 37.1536 141.564 36.9629 141.643 36.7226C141.726 36.4771 141.768 36.1976 141.768 35.8841C141.768 35.4034 141.674 35.0194 141.486 34.7321C141.303 34.4447 141.018 34.3011 140.632 34.3011ZM147.075 35.8919C147.075 36.242 147.028 36.5528 146.934 36.8245C146.846 37.0909 146.715 37.3182 146.543 37.5063C146.375 37.6944 146.169 37.838 145.923 37.9373C145.683 38.0313 145.414 38.0784 145.116 38.0784C144.839 38.0784 144.583 38.0313 144.348 37.9373C144.113 37.838 143.909 37.6944 143.737 37.5063C143.565 37.3182 143.429 37.0909 143.33 36.8245C143.235 36.5528 143.188 36.242 143.188 35.8919C143.188 35.4269 143.267 35.0351 143.424 34.7164C143.58 34.3925 143.805 34.1469 144.098 33.9798C144.39 33.8073 144.738 33.7211 145.14 33.7211C145.521 33.7211 145.856 33.8073 146.143 33.9798C146.435 34.1469 146.663 34.3925 146.825 34.7164C146.992 35.0351 147.075 35.4269 147.075 35.8919ZM143.902 35.8919C143.902 36.2211 143.943 36.5084 144.027 36.754C144.116 36.9943 144.252 37.1798 144.435 37.3104C144.617 37.441 144.85 37.5063 145.132 37.5063C145.414 37.5063 145.647 37.441 145.829 37.3104C146.012 37.1798 146.146 36.9943 146.229 36.754C146.318 36.5084 146.362 36.2211 146.362 35.8919C146.362 35.5576 146.318 35.2728 146.229 35.0377C146.14 34.8026 146.004 34.6224 145.822 34.497C145.644 34.3664 145.411 34.3011 145.124 34.3011C144.696 34.3011 144.385 34.4421 144.192 34.7242C143.998 35.0064 143.902 35.3956 143.902 35.8919ZM151.131 33.7995V37.4201H151.742V39.4576H151.076V38H148.153V39.4576H147.495V37.4201H147.831C148.072 37.0857 148.27 36.7226 148.427 36.3308C148.589 35.9337 148.709 35.521 148.788 35.0926C148.871 34.6589 148.916 34.2279 148.921 33.7995H151.131ZM149.532 34.3402C149.511 34.6955 149.456 35.0638 149.367 35.4452C149.279 35.8214 149.164 36.1819 149.023 36.5267C148.887 36.8715 148.727 37.1693 148.545 37.4201H150.465V34.3402H149.532ZM153.999 33.729C154.511 33.729 154.89 33.8413 155.136 34.066C155.381 34.2906 155.504 34.6485 155.504 35.1396V38H155.003L154.869 37.4044H154.838C154.718 37.5559 154.592 37.6839 154.462 37.7884C154.336 37.8877 154.19 37.9608 154.023 38.0078C153.861 38.0549 153.662 38.0784 153.427 38.0784C153.177 38.0784 152.949 38.034 152.746 37.9451C152.547 37.8563 152.39 37.7205 152.275 37.5376C152.16 37.3496 152.103 37.1144 152.103 36.8323C152.103 36.4144 152.268 36.0931 152.597 35.8684C152.926 35.6385 153.433 35.5131 154.117 35.4922L154.83 35.4687V35.218C154.83 34.8679 154.754 34.625 154.603 34.4891C154.451 34.3533 154.237 34.2854 153.96 34.2854C153.741 34.2854 153.532 34.3193 153.333 34.3873C153.135 34.45 152.949 34.5231 152.777 34.6067L152.565 34.0895C152.748 33.9902 152.965 33.9066 153.216 33.8387C153.467 33.7656 153.728 33.729 153.999 33.729ZM154.203 35.9703C153.681 35.9912 153.318 36.0748 153.114 36.2211C152.915 36.3673 152.816 36.5737 152.816 36.8402C152.816 37.0753 152.887 37.2477 153.028 37.3574C153.174 37.4671 153.359 37.522 153.584 37.522C153.939 37.522 154.235 37.4253 154.47 37.232C154.705 37.0335 154.822 36.7304 154.822 36.3229V35.9468L154.203 35.9703ZM161.262 38L159.421 33.0942H159.389C159.4 33.1987 159.408 33.3319 159.413 33.4939C159.423 33.6558 159.431 33.8335 159.436 34.0268C159.442 34.2149 159.444 34.4082 159.444 34.6067V38H158.794V32.4046H159.836L161.56 36.9891H161.591L163.347 32.4046H164.381V38H163.684V34.5597C163.684 34.3768 163.686 34.1966 163.692 34.0189C163.697 33.8361 163.705 33.6663 163.715 33.5096C163.726 33.3476 163.733 33.2118 163.739 33.102H163.707L161.842 38H161.262ZM169.305 35.8919C169.305 36.242 169.258 36.5528 169.164 36.8245C169.075 37.0909 168.944 37.3182 168.772 37.5063C168.604 37.6944 168.398 37.838 168.153 37.9373C167.912 38.0313 167.643 38.0784 167.345 38.0784C167.068 38.0784 166.812 38.0313 166.577 37.9373C166.342 37.838 166.139 37.6944 165.966 37.5063C165.794 37.3182 165.658 37.0909 165.559 36.8245C165.465 36.5528 165.418 36.242 165.418 35.8919C165.418 35.4269 165.496 35.0351 165.653 34.7164C165.809 34.3925 166.034 34.1469 166.327 33.9798C166.619 33.8073 166.967 33.7211 167.369 33.7211C167.75 33.7211 168.085 33.8073 168.372 33.9798C168.665 34.1469 168.892 34.3925 169.054 34.7164C169.221 35.0351 169.305 35.4269 169.305 35.8919ZM166.131 35.8919C166.131 36.2211 166.172 36.5084 166.256 36.754C166.345 36.9943 166.481 37.1798 166.664 37.3104C166.846 37.441 167.079 37.5063 167.361 37.5063C167.643 37.5063 167.876 37.441 168.059 37.3104C168.241 37.1798 168.375 36.9943 168.458 36.754C168.547 36.5084 168.591 36.2211 168.591 35.8919C168.591 35.5576 168.547 35.2728 168.458 35.0377C168.369 34.8026 168.234 34.6224 168.051 34.497C167.873 34.3664 167.641 34.3011 167.353 34.3011C166.925 34.3011 166.614 34.4421 166.421 34.7242C166.227 35.0064 166.131 35.3956 166.131 35.8919ZM171.926 38.0784C171.555 38.0784 171.223 38.0026 170.93 37.8511C170.643 37.6996 170.416 37.4645 170.249 37.1458C170.087 36.8271 170.006 36.4196 170.006 35.9233C170.006 35.406 170.092 34.9855 170.264 34.6616C170.437 34.3376 170.669 34.0999 170.962 33.9484C171.26 33.7969 171.597 33.7211 171.973 33.7211C172.187 33.7211 172.393 33.7447 172.592 33.7917C172.79 33.8335 172.952 33.8857 173.078 33.9484L172.866 34.5205C172.741 34.4735 172.594 34.4291 172.427 34.3873C172.26 34.3455 172.103 34.3246 171.957 34.3246C171.675 34.3246 171.442 34.3847 171.26 34.5048C171.077 34.625 170.941 34.8026 170.852 35.0377C170.763 35.2728 170.719 35.5654 170.719 35.9154C170.719 36.2498 170.763 36.5345 170.852 36.7696C170.941 37.0047 171.074 37.1824 171.252 37.3025C171.429 37.4227 171.651 37.4828 171.918 37.4828C172.148 37.4828 172.349 37.4593 172.521 37.4122C172.699 37.3652 172.861 37.3078 173.007 37.2398V37.8511C172.866 37.9242 172.709 37.9791 172.537 38.0157C172.37 38.0575 172.166 38.0784 171.926 38.0784ZM176.334 33.7995H177.086L175.291 35.8214L177.235 38H176.436L174.539 35.8684V38H173.849V33.7995H174.539V35.8371L176.334 33.7995ZM181.218 34.8575C181.218 35.1187 181.14 35.3224 180.983 35.4687C180.826 35.615 180.625 35.7143 180.38 35.7665V35.7979C180.641 35.8344 180.868 35.9285 181.062 36.08C181.255 36.2263 181.351 36.4562 181.351 36.7696C181.351 36.9473 181.318 37.1118 181.25 37.2633C181.187 37.4149 181.088 37.5455 180.952 37.6552C180.816 37.7649 180.641 37.8511 180.427 37.9138C180.213 37.9713 179.954 38 179.651 38H177.841V33.7995H179.643C179.941 33.7995 180.207 33.8335 180.442 33.9014C180.683 33.9641 180.871 34.0738 181.007 34.2305C181.148 34.382 181.218 34.591 181.218 34.8575ZM180.638 36.7696C180.638 36.5293 180.547 36.3569 180.364 36.2524C180.181 36.1479 179.912 36.0957 179.557 36.0957H178.53V37.4436H179.573C179.917 37.4436 180.181 37.394 180.364 37.2947C180.547 37.1902 180.638 37.0152 180.638 36.7696ZM180.521 34.9437C180.521 34.7451 180.448 34.6015 180.301 34.5127C180.16 34.4186 179.928 34.3716 179.604 34.3716H178.53V35.5236H179.478C179.818 35.5236 180.077 35.4766 180.254 35.3825C180.432 35.2885 180.521 35.1422 180.521 34.9437ZM182.199 38V33.7995H182.889V35.5236H183.978C184.344 35.5236 184.644 35.568 184.879 35.6568C185.114 35.7456 185.289 35.8789 185.404 36.0565C185.519 36.2289 185.577 36.4483 185.577 36.7148C185.577 36.976 185.519 37.2033 185.404 37.3966C185.295 37.5899 185.12 37.7388 184.879 37.8433C184.644 37.9478 184.333 38 183.947 38H182.199ZM183.884 37.4436C184.182 37.4436 184.425 37.394 184.613 37.2947C184.801 37.1902 184.895 37.01 184.895 36.754C184.895 36.498 184.809 36.3256 184.636 36.2367C184.464 36.1427 184.216 36.0957 183.892 36.0957H182.889V37.4436H183.884ZM186.274 38V33.7995H186.964V38H186.274Z" fill="#111111"/>
</g>
<defs>
<clipPath id="clip0_364_1180">
<rect width="188" height="59" fill="white"/>
</clipPath>
</defs>
</svg>
